<svg width="2012" height="2012" viewBox="0 0 2012 2012" fill="none" xmlns="http://www.w3.org/2000/svg">
<rect x="34" y="34" width="1944" height="1944" rx="147" stroke="#00B894" stroke-width="56"/>
<rect x="31" y="31" width="1950" height="1950" rx="150" stroke="#0F2838" stroke-width="50"/>
<rect x="3" y="3" width="2006" height="2006" rx="178" stroke="#E5E5E5" stroke-width="6"/>
<g filter="url(#filter0_d_0_3)">
<mask id="path-4-outside-1_0_3" maskUnits="userSpaceOnUse" x="109" y="653" width="1753" height="705" fill="black">
<rect fill="white" x="109" y="653" width="1753" height="705"/>
<path d="M215.624 1333H132.527L372.868 678.455H454.686L695.027 1333H611.93L416.334 782.006H411.22L215.624 1333ZM246.305 1077.32H581.249V1147.63H246.305V1077.32ZM762.303 678.455L956.621 1229.45H964.292L1158.61 678.455H1241.71L1001.37 1333H919.548L679.207 678.455H762.303ZM1760.34 883C1753.31 861.48 1744.04 842.197 1732.54 825.152C1721.24 807.893 1707.71 793.192 1691.95 781.047C1676.39 768.902 1658.71 759.633 1638.89 753.241C1619.08 746.849 1597.34 743.653 1573.69 743.653C1534.92 743.653 1499.65 753.668 1467.91 773.696C1436.16 793.724 1410.91 823.234 1392.16 862.226C1373.41 901.217 1364.03 949.051 1364.03 1005.73C1364.03 1062.4 1373.52 1110.24 1392.48 1149.23C1411.44 1188.22 1437.12 1217.73 1469.5 1237.76C1501.89 1257.79 1538.32 1267.8 1578.81 1267.8C1616.31 1267.8 1649.33 1259.81 1677.88 1243.83C1706.65 1227.64 1729.02 1204.84 1745 1175.44C1761.19 1145.82 1769.29 1110.98 1769.29 1070.93L1793.58 1076.04H1596.7V1005.73H1845.99V1076.04C1845.99 1129.95 1834.49 1176.82 1811.48 1216.66C1788.68 1256.51 1757.15 1287.4 1716.88 1309.35C1676.82 1331.08 1630.8 1341.95 1578.81 1341.95C1520.85 1341.95 1469.93 1328.31 1426.04 1301.04C1382.36 1273.77 1348.27 1234.99 1323.76 1184.7C1299.47 1134.42 1287.33 1074.76 1287.33 1005.73C1287.33 953.952 1294.25 907.396 1308.1 866.061C1322.17 824.513 1341.98 789.143 1367.55 759.953C1393.12 730.763 1423.37 708.391 1458.32 692.837C1493.26 677.283 1531.72 669.506 1573.69 669.506C1608.21 669.506 1640.38 674.726 1670.21 685.166C1700.26 695.393 1727 709.989 1750.43 728.952C1774.08 747.702 1793.79 770.18 1809.56 796.388C1825.33 822.382 1836.19 851.253 1842.16 883H1760.34Z"/>
</mask>
<path d="M215.624 1333H132.527L372.868 678.455H454.686L695.027 1333H611.93L416.334 782.006H411.22L215.624 1333ZM246.305 1077.32H581.249V1147.63H246.305V1077.32ZM762.303 678.455L956.621 1229.45H964.292L1158.61 678.455H1241.71L1001.37 1333H919.548L679.207 678.455H762.303ZM1760.34 883C1753.31 861.48 1744.04 842.197 1732.54 825.152C1721.24 807.893 1707.71 793.192 1691.95 781.047C1676.39 768.902 1658.71 759.633 1638.89 753.241C1619.08 746.849 1597.34 743.653 1573.69 743.653C1534.92 743.653 1499.65 753.668 1467.91 773.696C1436.16 793.724 1410.91 823.234 1392.16 862.226C1373.41 901.217 1364.03 949.051 1364.03 1005.73C1364.03 1062.4 1373.52 1110.24 1392.48 1149.23C1411.44 1188.22 1437.12 1217.73 1469.5 1237.76C1501.89 1257.79 1538.32 1267.8 1578.81 1267.8C1616.31 1267.8 1649.33 1259.81 1677.88 1243.83C1706.65 1227.64 1729.02 1204.84 1745 1175.44C1761.19 1145.82 1769.29 1110.98 1769.29 1070.93L1793.58 1076.04H1596.7V1005.73H1845.99V1076.04C1845.99 1129.95 1834.49 1176.82 1811.48 1216.66C1788.68 1256.51 1757.15 1287.4 1716.88 1309.35C1676.82 1331.08 1630.8 1341.95 1578.81 1341.95C1520.85 1341.95 1469.93 1328.31 1426.04 1301.04C1382.36 1273.77 1348.27 1234.99 1323.76 1184.7C1299.47 1134.42 1287.33 1074.76 1287.33 1005.73C1287.33 953.952 1294.25 907.396 1308.1 866.061C1322.17 824.513 1341.98 789.143 1367.55 759.953C1393.12 730.763 1423.37 708.391 1458.32 692.837C1493.26 677.283 1531.72 669.506 1573.69 669.506C1608.21 669.506 1640.38 674.726 1670.21 685.166C1700.26 695.393 1727 709.989 1750.43 728.952C1774.08 747.702 1793.79 770.18 1809.56 796.388C1825.33 822.382 1836.19 851.253 1842.16 883H1760.34Z" fill="#0F2838"/>
<path d="M215.624 1333V1349H226.922L230.702 1338.35L215.624 1333ZM132.527 1333L117.507 1327.48L109.607 1349H132.527V1333ZM372.868 678.455V662.455H361.698L357.848 672.94L372.868 678.455ZM454.686 678.455L469.706 672.94L465.856 662.455H454.686V678.455ZM695.027 1333V1349H717.947L710.047 1327.48L695.027 1333ZM611.93 1333L596.852 1338.35L600.632 1349H611.93V1333ZM416.334 782.006L431.412 776.653L427.632 766.006H416.334V782.006ZM411.22 782.006V766.006H399.922L396.142 776.653L411.22 782.006ZM246.305 1077.32V1061.32H230.305V1077.32H246.305ZM581.249 1077.32H597.249V1061.32H581.249V1077.32ZM581.249 1147.63V1163.63H597.249V1147.63H581.249ZM246.305 1147.63H230.305V1163.63H246.305V1147.63ZM215.624 1333V1317H132.527V1333V1349H215.624V1333ZM132.527 1333L147.546 1338.52L387.887 683.969L372.868 678.455L357.848 672.94L117.507 1327.48L132.527 1333ZM372.868 678.455V694.455H454.686V678.455V662.455H372.868V678.455ZM454.686 678.455L439.667 683.969L680.008 1338.52L695.027 1333L710.047 1327.48L469.706 672.94L454.686 678.455ZM695.027 1333V1317H611.93V1333V1349H695.027V1333ZM611.93 1333L627.009 1327.65L431.412 776.653L416.334 782.006L401.256 787.358L596.852 1338.35L611.93 1333ZM416.334 782.006V766.006H411.22V782.006V798.006H416.334V782.006ZM411.22 782.006L396.142 776.653L200.545 1327.65L215.624 1333L230.702 1338.35L426.298 787.358L411.22 782.006ZM246.305 1077.32V1093.32H581.249V1077.32V1061.32H246.305V1077.32ZM581.249 1077.32H565.249V1147.63H581.249H597.249V1077.32H581.249ZM581.249 1147.63V1131.63H246.305V1147.63V1163.63H581.249V1147.63ZM246.305 1147.63H262.305V1077.32H246.305H230.305V1147.63H246.305ZM762.303 678.455L777.392 673.133L773.626 662.455H762.303V678.455ZM956.621 1229.45L941.532 1234.77L945.298 1245.45H956.621V1229.45ZM964.292 1229.45V1245.45H975.615L979.381 1234.77L964.292 1229.45ZM1158.61 678.455V662.455H1147.29L1143.52 673.133L1158.61 678.455ZM1241.71 678.455L1256.73 683.969L1264.63 662.455H1241.71V678.455ZM1001.37 1333V1349H1012.54L1016.39 1338.52L1001.37 1333ZM919.548 1333L904.528 1338.52L908.378 1349H919.548V1333ZM679.207 678.455V662.455H656.287L664.187 683.969L679.207 678.455ZM762.303 678.455L747.214 683.776L941.532 1234.77L956.621 1229.45L971.711 1224.13L777.392 673.133L762.303 678.455ZM956.621 1229.45V1245.45H964.292V1229.45V1213.45H956.621V1229.45ZM964.292 1229.45L979.381 1234.77L1173.7 683.776L1158.61 678.455L1143.52 673.133L949.203 1224.13L964.292 1229.45ZM1158.61 678.455V694.455H1241.71V678.455V662.455H1158.61V678.455ZM1241.71 678.455L1226.69 672.94L986.346 1327.48L1001.37 1333L1016.39 1338.52L1256.73 683.969L1241.71 678.455ZM1001.37 1333V1317H919.548V1333V1349H1001.37V1333ZM919.548 1333L934.567 1327.48L694.226 672.94L679.207 678.455L664.187 683.969L904.528 1338.52L919.548 1333ZM679.207 678.455V694.455H762.303V678.455V662.455H679.207V678.455ZM1760.34 883L1745.13 887.969L1748.74 899H1760.34V883ZM1732.54 825.152L1719.15 833.912L1719.21 834.008L1719.27 834.104L1732.54 825.152ZM1691.95 781.047L1682.1 793.658L1682.14 793.69L1682.18 793.722L1691.95 781.047ZM1638.89 753.241L1643.8 738.014L1638.89 753.241ZM1392.16 862.226L1406.58 869.16L1392.16 862.226ZM1392.48 1149.23L1378.09 1156.23L1392.48 1149.23ZM1677.88 1243.83L1685.7 1257.79L1685.72 1257.78L1685.73 1257.77L1677.88 1243.83ZM1745 1175.44L1730.96 1167.76L1730.95 1167.78L1730.94 1167.8L1745 1175.44ZM1769.29 1070.93L1772.59 1055.27L1753.29 1051.21V1070.93H1769.29ZM1793.58 1076.04V1092.04L1796.88 1060.38L1793.58 1076.04ZM1596.7 1076.04H1580.7V1092.04H1596.7V1076.04ZM1596.7 1005.73V989.727H1580.7V1005.73H1596.7ZM1845.99 1005.73H1861.99V989.727H1845.99V1005.73ZM1811.48 1216.66L1797.62 1208.66L1797.61 1208.69L1797.59 1208.72L1811.48 1216.66ZM1716.88 1309.35L1724.51 1323.41L1724.52 1323.41L1724.53 1323.4L1716.88 1309.35ZM1426.04 1301.04L1417.56 1314.61L1417.58 1314.62L1417.59 1314.63L1426.04 1301.04ZM1323.76 1184.7L1309.36 1191.66L1309.37 1191.69L1309.38 1191.71L1323.76 1184.7ZM1308.1 866.061L1292.95 860.932L1292.94 860.955L1292.93 860.978L1308.1 866.061ZM1367.55 759.953L1379.59 770.495L1367.55 759.953ZM1670.21 685.166L1664.93 700.268L1664.99 700.291L1665.06 700.313L1670.21 685.166ZM1750.43 728.952L1740.37 741.39L1740.43 741.44L1740.49 741.49L1750.43 728.952ZM1809.56 796.388L1795.85 804.636L1795.86 804.661L1795.88 804.686L1809.56 796.388ZM1842.16 883V899H1861.45L1857.88 880.045L1842.16 883ZM1760.34 883L1775.55 878.031C1768.1 855.24 1758.21 834.594 1745.8 816.2L1732.54 825.152L1719.27 834.104C1729.87 849.801 1738.52 867.72 1745.13 887.969L1760.34 883ZM1732.54 825.152L1745.92 816.392C1733.69 797.689 1718.95 781.649 1701.71 768.371L1691.95 781.047L1682.18 793.722C1696.48 804.735 1708.8 818.098 1719.15 833.912L1732.54 825.152ZM1691.95 781.047L1701.79 768.436C1684.68 755.074 1665.31 744.95 1643.8 738.014L1638.89 753.241L1633.98 768.469C1652.11 774.317 1668.1 782.73 1682.1 793.658L1691.95 781.047ZM1638.89 753.241L1643.8 738.014C1622.2 731.046 1598.79 727.653 1573.69 727.653V743.653V759.653C1595.9 759.653 1615.95 762.653 1633.98 768.469L1638.89 753.241ZM1573.69 743.653V727.653C1532 727.653 1493.76 738.468 1459.37 760.164L1467.91 773.696L1476.44 787.228C1505.55 768.867 1537.83 759.653 1573.69 759.653V743.653ZM1467.91 773.696L1459.37 760.164C1424.71 782.028 1397.59 814.014 1377.74 855.292L1392.16 862.226L1406.58 869.16C1424.23 832.454 1447.61 805.42 1476.44 787.228L1467.91 773.696ZM1392.16 862.226L1377.74 855.292C1357.68 897.009 1348.03 947.364 1348.03 1005.73H1364.03H1380.03C1380.03 950.738 1389.14 905.425 1406.58 869.16L1392.16 862.226ZM1364.03 1005.73H1348.03C1348.03 1064.11 1357.79 1114.49 1378.09 1156.23L1392.48 1149.23L1406.87 1142.23C1389.24 1105.98 1380.03 1060.69 1380.03 1005.73H1364.03ZM1392.48 1149.23L1378.09 1156.23C1398.19 1197.55 1425.78 1229.53 1461.09 1251.37L1469.5 1237.76L1477.92 1224.15C1448.45 1205.93 1424.69 1178.89 1406.87 1142.23L1392.48 1149.23ZM1469.5 1237.76L1461.09 1251.37C1496.16 1273.06 1535.55 1283.8 1578.81 1283.8V1267.8V1251.8C1541.1 1251.8 1507.62 1242.52 1477.92 1224.15L1469.5 1237.76ZM1578.81 1267.8V1283.8C1618.64 1283.8 1654.43 1275.29 1685.7 1257.79L1677.88 1243.83L1670.07 1229.87C1644.24 1244.33 1613.98 1251.8 1578.81 1251.8V1267.8ZM1677.88 1243.83L1685.73 1257.77C1717.16 1240.08 1741.66 1215.08 1759.06 1183.08L1745 1175.44L1730.94 1167.8C1716.38 1194.6 1696.14 1215.19 1670.03 1229.89L1677.88 1243.83ZM1745 1175.44L1759.04 1183.11C1776.74 1150.74 1785.29 1113.16 1785.29 1070.93H1769.29H1753.29C1753.29 1108.8 1745.65 1140.9 1730.96 1167.76L1745 1175.44ZM1769.29 1070.93L1765.99 1086.58L1790.28 1091.7L1793.58 1076.04L1796.88 1060.38L1772.59 1055.27L1769.29 1070.93ZM1793.58 1076.04V1060.04H1596.7V1076.04V1092.04H1793.58V1076.04ZM1596.7 1076.04H1612.7V1005.73H1596.7H1580.7V1076.04H1596.7ZM1596.7 1005.73V1021.73H1845.99V1005.73V989.727H1596.7V1005.73ZM1845.99 1005.73H1829.99V1076.04H1845.99H1861.99V1005.73H1845.99ZM1845.99 1076.04H1829.99C1829.99 1127.62 1819 1171.64 1797.62 1208.66L1811.48 1216.66L1825.33 1224.67C1849.97 1182 1861.99 1132.27 1861.99 1076.04H1845.99ZM1811.48 1216.66L1797.59 1208.72C1776.26 1245.99 1746.88 1274.77 1709.22 1295.3L1716.88 1309.35L1724.53 1323.4C1767.41 1300.03 1801.1 1267.02 1825.36 1224.61L1811.48 1216.66ZM1716.88 1309.35L1709.25 1295.29C1671.84 1315.58 1628.51 1325.95 1578.81 1325.95V1341.95V1357.95C1633.08 1357.95 1681.79 1346.59 1724.51 1323.41L1716.88 1309.35ZM1578.81 1341.95V1325.95C1523.46 1325.95 1475.54 1312.96 1434.48 1287.45L1426.04 1301.04L1417.59 1314.63C1464.32 1343.66 1518.24 1357.95 1578.81 1357.95V1341.95ZM1426.04 1301.04L1434.51 1287.47C1393.6 1261.92 1361.45 1225.52 1338.15 1177.7L1323.76 1184.7L1309.38 1191.71C1335.08 1244.45 1371.12 1285.61 1417.56 1314.61L1426.04 1301.04ZM1323.76 1184.7L1338.17 1177.75C1315.15 1130.08 1303.33 1072.91 1303.33 1005.73H1287.33H1271.33C1271.33 1076.61 1283.8 1138.76 1309.36 1191.66L1323.76 1184.7ZM1287.33 1005.73H1303.33C1303.33 955.364 1310.07 910.566 1323.28 871.144L1308.1 866.061L1292.93 860.978C1278.44 904.226 1271.33 952.539 1271.33 1005.73H1287.33ZM1308.1 866.061L1323.26 871.191C1336.74 831.375 1355.57 797.911 1379.59 770.495L1367.55 759.953L1355.51 749.411C1328.39 780.376 1307.6 817.65 1292.95 860.932L1308.1 866.061ZM1367.55 759.953L1379.59 770.495C1403.65 743.022 1432.03 722.052 1464.82 707.454L1458.32 692.837L1451.81 678.219C1414.72 694.729 1382.59 718.504 1355.51 749.411L1367.55 759.953ZM1458.32 692.837L1464.82 707.454C1497.53 692.897 1533.74 685.506 1573.69 685.506V669.506V653.506C1529.7 653.506 1488.99 661.668 1451.81 678.219L1458.32 692.837ZM1573.69 669.506V685.506C1606.58 685.506 1636.95 690.474 1664.93 700.268L1670.21 685.166L1675.5 670.064C1643.82 658.977 1609.84 653.506 1573.69 653.506V669.506ZM1670.21 685.166L1665.06 700.313C1693.41 709.965 1718.47 723.673 1740.37 741.39L1750.43 728.952L1760.5 716.513C1735.52 696.304 1707.1 680.822 1675.37 670.02L1670.21 685.166ZM1750.43 728.952L1740.49 741.49C1762.62 759.031 1781.06 780.051 1795.85 804.636L1809.56 796.388L1823.27 788.139C1806.53 760.31 1785.55 736.372 1760.37 716.414L1750.43 728.952ZM1809.56 796.388L1795.88 804.686C1810.59 828.936 1820.8 855.978 1826.43 885.955L1842.16 883L1857.88 880.045C1851.59 846.528 1840.07 815.828 1823.24 788.09L1809.56 796.388ZM1842.16 883V867H1760.34V883V899H1842.16V883Z" fill="#00B894" mask="url(#path-4-outside-1_0_3)"/>
</g>
<defs>
<filter id="filter0_d_0_3" x="105.607" y="653.506" width="1760.39" height="712.443" filterUnits="userSpaceOnUse" color-interpolation-filters="sRGB">
<feFlood flood-opacity="0" result="BackgroundImageFix"/>
<feColorMatrix in="SourceAlpha" type="matrix" values="0 0 0 0 0 0 0 0 0 0 0 0 0 0 0 0 0 0 127 0" result="hardAlpha"/>
<feOffset dy="4"/>
<feGaussianBlur stdDeviation="2"/>
<feComposite in2="hardAlpha" operator="out"/>
<feColorMatrix type="matrix" values="0 0 0 0 0 0 0 0 0 0 0 0 0 0 0 0 0 0 0.25 0"/>
<feBlend mode="normal" in2="BackgroundImageFix" result="effect1_dropShadow_0_3"/>
<feBlend mode="normal" in="SourceGraphic" in2="effect1_dropShadow_0_3" result="shape"/>
</filter>
</defs>
</svg>
