<svg width="512" height="512" version="1.1" xmlns="http://www.w3.org/2000/svg" desc="Created with imagetracer.js version 1.2.6" ><path fill="rgb(0,0,0)" stroke="rgb(0,0,0)" stroke-width="1" opacity="0" d="M 0 0 L 512 0 L 512 512 L 0 512 L 0 0 Z M 248 40 L 247 41 L 236 42 L 224 46 L 209 54 L 190 70 L 181 73 L 116 76 L 115 77 L 99 77 L 98 78 L 82 78 L 81 79 L 65 79 L 64 80 Q 55 78 52 81 L 48 86 L 48 115 L 49 117 L 54 120 L 92 120 L 59 216 L 38 216 L 36 217 L 32 222 L 32 240 L 34 251 Q 38 266 47 277 Q 56 288 69 295 L 86 302 L 97 304 L 112 304 L 123 302 Q 138 298 149 289 Q 160 280 167 268 L 174 251 L 176 240 L 176 222 L 175 220 L 171 216 L 149 216 L 116 120 L 205 120 L 214 118 L 224 138 L 224 361 L 219 362 L 208 368 Q 197 375 194 389 L 192 389 Q 176 374 157 363 L 120 347 L 120 334 L 119 332 L 115 328 L 22 328 L 20 329 L 16 334 L 16 435 L 17 437 L 22 440 L 115 440 L 118 438 Q 130 453 148 462 L 166 469 L 182 472 L 277 472 L 286 468 Q 293 463 296 453 Q 297 444 295 440 L 339 440 L 340 439 L 358 437 L 379 430 Q 392 424 403 416 L 408 416 L 408 427 L 409 429 L 414 432 L 491 432 L 493 431 L 496 427 L 496 326 L 495 324 L 491 320 L 414 320 L 412 321 L 408 326 L 408 336 L 385 336 L 370 339 Q 347 346 333 360 L 300 360 L 296 362 L 288 361 L 288 138 L 299 118 L 308 120 L 396 120 L 363 216 L 342 216 L 340 217 L 336 222 L 336 240 L 338 251 Q 342 266 351 277 Q 360 288 373 295 L 390 302 L 401 304 L 416 304 L 427 302 Q 442 298 453 289 Q 464 280 471 268 L 478 251 L 480 240 L 480 222 L 479 220 L 475 216 L 453 216 L 420 120 L 459 120 L 461 119 L 464 115 L 464 86 L 463 84 L 459 80 L 450 80 L 449 79 L 432 79 L 431 78 L 416 78 L 415 77 L 398 77 L 397 76 L 382 76 L 381 75 L 332 73 L 323 70 L 304 54 L 289 46 L 272 41 L 248 40 Z " /><path fill="rgb(0,0,0)" stroke="rgb(0,0,0)" stroke-width="1" opacity="0" d="M 248.5 56 L 263.5 56 L 280.5 60 Q 299.1 67.9 311.5 82 L 325.5 88 L 344.5 89 L 345.5 90 L 361.5 90 L 362.5 91 L 378.5 91 L 379.5 92 L 395.5 92 L 396.5 93 L 412.5 93 L 413.5 94 L 429.5 94 L 430.5 95 L 446.5 95 L 448 96.5 L 448 103.5 L 447.5 104 L 308.5 104 L 295.5 99 Q 286.4 89.1 273.5 83 L 261.5 80 L 249.5 80 L 232.5 86 L 216.5 99 L 203.5 104 L 64 104 L 64 96.5 L 65.5 95 L 82.5 95 L 83.5 94 L 116.5 93 L 117.5 92 L 133.5 92 L 134.5 91 L 167.5 90 L 168.5 89 L 186.5 88 L 200.5 82 L 219.5 66 L 231.5 60 L 248.5 56 Z " /><path fill="rgb(0,0,0)" stroke="rgb(0,0,0)" stroke-width="1" opacity="0" d="M 251.5 96 L 260.5 96 L 267.5 98 Q 277.3 102.7 284 110.5 L 274.5 128 L 237.5 128 L 236 126.5 L 228 110.5 L 240.5 100 L 251.5 96 Z " /><path fill="rgb(0,0,0)" stroke="rgb(0,0,0)" stroke-width="1" opacity="0" d="M 103 137 Q 106 135.8 105 139.5 L 129 204.5 L 132 216 L 76.5 216 L 76 213.5 L 103 137 Z " /><path fill="rgb(0,0,0)" stroke="rgb(0,0,0)" stroke-width="1" opacity="0" d="M 407 137 Q 410 135.8 409 139.5 L 433 204.5 L 436 216 L 380.5 216 L 380 213.5 L 407 137 Z " /><path fill="rgb(0,0,0)" stroke="rgb(0,0,0)" stroke-width="1" opacity="0" d="M 240 144 L 271.5 144 L 272 144.5 L 272 360 L 240.5 360 L 240 359.5 L 240 144 Z " /><path fill="rgb(0,0,0)" stroke="rgb(0,0,0)" stroke-width="1" opacity="0" d="M 48 232 L 159.5 232 Q 160.8 232.3 160 238.5 Q 156.1 261.6 141.5 274 Q 132.9 281.9 120.5 286 L 110.5 288 L 97.5 288 Q 74.6 283.9 62 269.5 Q 54.1 260.9 50 248.5 L 48 232 Z " /><path fill="rgb(0,0,0)" stroke="rgb(0,0,0)" stroke-width="1" opacity="0" d="M 352 232 L 463.5 232 Q 464.8 232.3 464 238.5 Q 460.1 261.6 445.5 274 Q 436.9 281.9 424.5 286 L 414.5 288 L 401.5 288 Q 378.6 283.9 366 269.5 Q 358.1 260.9 354 248.5 L 352 232 Z " /><path fill="rgb(0,0,0)" stroke="rgb(0,0,0)" stroke-width="1" opacity="0" d="M 424 336 L 480 336 L 480 416 L 424 416 L 424 336 Z " /><path fill="rgb(0,0,0)" stroke="rgb(0,0,0)" stroke-width="1" opacity="0" d="M 32 344 L 104 344 L 104 424 L 32 424 L 32 344 Z " /><path fill="rgb(0,0,0)" stroke="rgb(0,0,0)" stroke-width="1" opacity="0" d="M 385.5 352 L 408 352 L 408 400 L 397.5 400 Q 377.3 417.3 345.5 423 Q 339.3 421.2 337.5 424 L 253.5 424 L 249 420.5 L 248 413.5 L 251.5 409 L 253.5 408 L 344 408 L 344 392 L 301.5 392 L 297 388.5 L 296 381.5 L 299.5 377 L 301.5 376 L 338.5 376 L 359.5 360 L 371.5 355 L 385.5 352 Z " /><path fill="rgb(0,0,0)" stroke="rgb(0,0,0)" stroke-width="1" opacity="0" d="M 120.5 364 Q 161.5 379.5 189.5 408 L 226.5 408 L 231 411.5 L 232 418.5 L 228.5 423 L 226.5 424 L 184 424 L 184 439.5 L 184.5 440 L 274.5 440 L 279 443.5 L 280 450.5 L 276.5 455 L 274.5 456 L 182.5 456 L 171.5 454 L 157.5 449 Q 143.2 442.3 133 431.5 L 120 413.5 L 120.5 364 Z " /><path fill="rgb(0,0,0)" stroke="rgb(0,0,0)" stroke-width="1" opacity="0" d="M 227.5 376 L 280.5 376 L 281 378.5 L 280 379.5 L 280 388.5 L 281 392 L 210.5 392 L 210 389.5 L 218.5 380 L 227.5 376 Z " /><path fill="rgb(0,0,0)" stroke="rgb(0,0,0)" stroke-width="1" opacity="0.9921568627450981" d="M 247.5 40 L 271.5 41 L 288.5 46 L 303.5 54 L 322.5 70 L 331.5 73 L 380.5 75 L 381.5 76 L 396.5 76 L 397.5 77 L 414.5 77 L 415.5 78 L 430.5 78 L 431.5 79 L 448.5 79 L 449.5 80 L 458.5 80 L 463 83.5 L 464 85.5 L 464 114.5 L 460.5 119 L 458.5 120 L 420 120 L 453 216 L 474.5 216 L 479 219.5 L 480 221.5 L 480 239.5 L 478 250.5 L 471 267.5 Q 463.8 280.3 452.5 289 Q 441.6 297.6 426.5 302 L 415.5 304 L 400.5 304 L 389.5 302 L 372.5 295 Q 359.8 287.8 351 276.5 Q 342.4 265.6 338 250.5 L 336 239.5 L 336 221.5 L 339.5 217 L 341.5 216 L 363 216 L 396 120 L 307.5 120 L 298.5 118 L 288 137.5 L 288 361 L 295.5 362 L 299.5 360 L 332.5 360 Q 347 345.5 369.5 339 L 384.5 336 L 408 336 L 408 325.5 L 411.5 321 L 413.5 320 L 490.5 320 L 495 323.5 L 496 325.5 L 496 426.5 L 492.5 431 L 490.5 432 L 413.5 432 L 409 428.5 L 408 426.5 L 408 416 L 402.5 416 Q 392 424.5 378.5 430 L 357.5 437 L 339.5 439 L 338.5 440 L 295 440 Q 296.9 444.2 296 452.5 Q 293.3 462.8 285.5 468 L 276.5 472 L 181.5 472 L 165.5 469 L 147.5 462 Q 129.7 452.8 117.5 438 L 114.5 440 L 21.5 440 L 17 436.5 L 16 434.5 L 16 333.5 L 19.5 329 L 21.5 328 L 114.5 328 L 119 331.5 L 120 333.5 L 120 347 L 156.5 363 Q 176.4 373.6 191.5 389 L 194 389 Q 197.1 375.4 207.5 368 L 218.5 362 L 224 361 L 224 137.5 L 213.5 118 L 204.5 120 L 116 120 L 149 216 L 170.5 216 L 175 219.5 L 176 221.5 L 176 239.5 L 174 250.5 L 167 267.5 Q 159.8 280.3 148.5 289 Q 137.6 297.6 122.5 302 L 111.5 304 L 96.5 304 L 85.5 302 L 68.5 295 Q 55.8 287.8 47 276.5 Q 38.4 265.6 34 250.5 L 32 239.5 L 32 221.5 L 35.5 217 L 37.5 216 L 59 216 L 92 120 L 53.5 120 L 49 116.5 L 48 114.5 L 48 85.5 L 51.5 81 Q 55.3 78.3 63.5 80 L 64.5 79 L 80.5 79 L 81.5 78 L 97.5 78 L 98.5 77 L 114.5 77 L 115.5 76 L 180.5 73 L 189.5 70 L 208.5 54 L 223.5 46 L 235.5 42 L 246.5 41 L 247.5 40 Z M 249 56 L 232 60 L 220 66 L 201 82 L 187 88 L 169 89 L 168 90 L 135 91 L 134 92 L 118 92 L 117 93 L 84 94 L 83 95 L 66 95 L 64 97 L 64 104 L 204 104 L 217 99 L 233 86 L 250 80 L 262 80 L 274 83 Q 286 89 296 99 L 309 104 L 448 104 L 448 104 L 448 97 L 447 95 L 431 95 L 430 94 L 414 94 L 413 93 L 397 93 L 396 92 L 380 92 L 379 91 L 363 91 L 362 90 L 346 90 L 345 89 L 326 88 L 312 82 Q 299 68 281 60 L 264 56 L 249 56 Z M 252 96 L 241 100 L 228 111 L 236 127 L 238 128 L 275 128 L 284 111 Q 277 103 268 98 L 261 96 L 252 96 Z M 103 137 L 76 214 L 77 216 L 132 216 L 129 205 L 105 140 Q 106 136 103 137 Z M 407 137 L 380 214 L 381 216 L 436 216 L 433 205 L 409 140 Q 410 136 407 137 Z M 240 144 L 240 360 L 241 360 L 272 360 L 272 145 L 272 144 L 240 144 Z M 48 232 L 50 249 Q 54 261 62 270 Q 75 284 98 288 L 111 288 L 121 286 Q 133 282 142 274 Q 156 262 160 239 Q 161 232 160 232 L 48 232 Z M 352 232 L 354 249 Q 358 261 366 270 Q 379 284 402 288 L 415 288 L 425 286 Q 437 282 446 274 Q 460 262 464 239 Q 465 232 464 232 L 352 232 Z M 424 336 L 424 416 L 480 416 L 480 336 L 424 336 Z M 32 344 L 32 424 L 104 424 L 104 344 L 32 344 Z M 386 352 L 372 355 L 360 360 L 339 376 L 302 376 L 300 377 L 296 382 L 297 389 L 302 392 L 344 392 L 344 408 L 254 408 L 252 409 L 248 414 L 249 421 L 254 424 L 338 424 Q 339 421 346 423 Q 377 417 398 400 L 408 400 L 408 352 L 386 352 Z M 121 364 L 120 414 L 133 432 Q 143 442 158 449 L 172 454 L 183 456 L 275 456 L 277 455 L 280 451 L 279 444 L 275 440 L 185 440 L 184 440 L 184 424 L 227 424 L 229 423 L 232 419 L 231 412 L 227 408 L 190 408 Q 162 379 121 364 Z M 228 376 L 219 380 L 210 390 L 211 392 L 281 392 L 280 389 L 280 380 L 281 379 L 281 376 L 228 376 Z " /></svg>