<svg width="2533" height="2361" viewBox="0 0 2533 2361" fill="none" xmlns="http://www.w3.org/2000/svg">
<path d="M1831 204H181C99.8141 204 34 269.814 34 351V1667C34 1748.19 99.8141 1814 181 1814H1831C1912.19 1814 1978 1748.19 1978 1667V351C1978 269.814 1912.19 204 1831 204Z" stroke="#00B894" stroke-width="56"/>
<path d="M1831 201H181C98.1573 201 31 268.157 31 351V1667C31 1749.84 98.1573 1817 181 1817H1831C1913.84 1817 1981 1749.84 1981 1667V351C1981 268.157 1913.84 201 1831 201Z" stroke="#0F2838" stroke-width="50"/>
<path d="M1831 173H181C82.6933 173 3 252.693 3 351V1667C3 1765.31 82.6933 1845 181 1845H1831C1929.31 1845 2009 1765.31 2009 1667V351C2009 252.693 1929.31 173 1831 173Z" stroke="black" stroke-width="6"/>
<g filter="url(#filter0_d_22_207)">
<path d="M215.624 1327H132.527L372.868 672.455H454.686L695.027 1327H611.93L416.334 776.006H411.22L215.624 1327ZM246.305 1071.32H581.249V1141.63H246.305V1071.32ZM762.303 672.455L956.621 1223.45H964.292L1158.61 672.455H1241.71L1001.37 1327H919.548L679.207 672.455H762.303ZM1760.34 877C1753.31 855.48 1744.04 836.197 1732.54 819.152C1721.24 801.893 1707.71 787.192 1691.95 775.047C1676.39 762.902 1658.71 753.633 1638.89 747.241C1619.08 740.849 1597.34 737.653 1573.69 737.653C1534.92 737.653 1499.65 747.668 1467.91 767.696C1436.16 787.724 1410.91 817.234 1392.16 856.226C1373.41 895.217 1364.03 943.051 1364.03 999.727C1364.03 1056.4 1373.52 1104.24 1392.48 1143.23C1411.44 1182.22 1437.12 1211.73 1469.5 1231.76C1501.89 1251.79 1538.32 1261.8 1578.81 1261.8C1616.31 1261.8 1649.33 1253.81 1677.88 1237.83C1706.65 1221.64 1729.02 1198.84 1745 1169.44C1761.19 1139.82 1769.29 1104.98 1769.29 1064.93L1793.58 1070.04H1596.7V999.727H1845.99V1070.04C1845.99 1123.95 1834.49 1170.82 1811.48 1210.66C1788.68 1250.51 1757.15 1281.4 1716.88 1303.35C1676.82 1325.08 1630.8 1335.95 1578.81 1335.95C1520.85 1335.95 1469.93 1322.31 1426.04 1295.04C1382.36 1267.77 1348.27 1228.99 1323.76 1178.7C1299.47 1128.42 1287.33 1068.76 1287.33 999.727C1287.33 947.952 1294.25 901.396 1308.1 860.061C1322.17 818.513 1341.98 783.143 1367.55 753.953C1393.12 724.763 1423.37 702.391 1458.32 686.837C1493.26 671.283 1531.72 663.506 1573.69 663.506C1608.21 663.506 1640.38 668.726 1670.21 679.166C1700.26 689.393 1727 703.989 1750.43 722.952C1774.08 741.702 1793.79 764.18 1809.56 790.388C1825.33 816.382 1836.19 845.253 1842.16 877H1760.34Z" fill="#0F2838"/>
<mask id="mask0_22_207" style="mask-type:luminance" maskUnits="userSpaceOnUse" x="109" y="647" width="1753" height="705">
<path d="M1862 647H109V1352H1862V647Z" fill="white"/>
<path d="M215.624 1327H132.527L372.868 672.455H454.686L695.027 1327H611.93L416.334 776.006H411.22L215.624 1327ZM246.305 1071.32H581.249V1141.63H246.305V1071.32ZM762.303 672.455L956.621 1223.45H964.292L1158.61 672.455H1241.71L1001.37 1327H919.548L679.207 672.455H762.303ZM1760.34 877C1753.31 855.48 1744.04 836.197 1732.54 819.152C1721.24 801.893 1707.71 787.192 1691.95 775.047C1676.39 762.902 1658.71 753.633 1638.89 747.241C1619.08 740.849 1597.34 737.653 1573.69 737.653C1534.92 737.653 1499.65 747.668 1467.91 767.696C1436.16 787.724 1410.91 817.234 1392.16 856.226C1373.41 895.217 1364.03 943.051 1364.03 999.727C1364.03 1056.4 1373.52 1104.24 1392.48 1143.23C1411.44 1182.22 1437.12 1211.73 1469.5 1231.76C1501.89 1251.79 1538.32 1261.8 1578.81 1261.8C1616.31 1261.8 1649.33 1253.81 1677.88 1237.83C1706.65 1221.64 1729.02 1198.84 1745 1169.44C1761.19 1139.82 1769.29 1104.98 1769.29 1064.93L1793.58 1070.04H1596.7V999.727H1845.99V1070.04C1845.99 1123.95 1834.49 1170.82 1811.48 1210.66C1788.68 1250.51 1757.15 1281.4 1716.88 1303.35C1676.82 1325.08 1630.8 1335.95 1578.81 1335.95C1520.85 1335.95 1469.93 1322.31 1426.04 1295.04C1382.36 1267.77 1348.27 1228.99 1323.76 1178.7C1299.47 1128.42 1287.33 1068.76 1287.33 999.727C1287.33 947.952 1294.25 901.396 1308.1 860.061C1322.17 818.513 1341.98 783.143 1367.55 753.953C1393.12 724.763 1423.37 702.391 1458.32 686.837C1493.26 671.283 1531.72 663.506 1573.69 663.506C1608.21 663.506 1640.38 668.726 1670.21 679.166C1700.26 689.393 1727 703.989 1750.43 722.952C1774.08 741.702 1793.79 764.18 1809.56 790.388C1825.33 816.382 1836.19 845.253 1842.16 877H1760.34Z" fill="black"/>
</mask>
<g mask="url(#mask0_22_207)">
<path d="M215.624 1327V1343H226.922L230.702 1332.35L215.624 1327ZM132.527 1327L117.507 1321.49L109.607 1343H132.527V1327ZM372.868 672.455V656.455H361.698L357.848 666.94L372.868 672.455ZM454.686 672.455L469.706 666.94L465.856 656.455H454.686V672.455ZM695.027 1327V1343H717.947L710.046 1321.49L695.027 1327ZM611.93 1327L596.852 1332.35L600.632 1343H611.93V1327ZM416.334 776.006L431.412 770.653L427.632 760.006H416.334V776.006ZM411.22 776.006V760.006H399.922L396.142 770.653L411.22 776.006ZM246.305 1071.32V1055.32H230.305V1071.32H246.305ZM581.249 1071.32H597.249V1055.32H581.249V1071.32ZM581.249 1141.63V1157.63H597.249V1141.63H581.249ZM246.305 1141.63H230.305V1157.63H246.305V1141.63ZM215.624 1327V1311H132.527V1327V1343H215.624V1327ZM132.527 1327L147.546 1332.51L387.887 677.969L372.868 672.455L357.848 666.94L117.507 1321.49L132.527 1327ZM372.868 672.455V688.455H454.686V672.455V656.455H372.868V672.455ZM454.686 672.455L439.667 677.969L680.008 1332.51L695.027 1327L710.046 1321.49L469.706 666.94L454.686 672.455ZM695.027 1327V1311H611.93V1327V1343H695.027V1327ZM611.93 1327L627.009 1321.65L431.412 770.653L416.334 776.006L401.256 781.358L596.852 1332.35L611.93 1327ZM416.334 776.006V760.006H411.22V776.006V792.006H416.334V776.006ZM411.22 776.006L396.142 770.653L200.545 1321.65L215.624 1327L230.702 1332.35L426.298 781.358L411.22 776.006ZM246.305 1071.32V1087.32H581.249V1071.32V1055.32H246.305V1071.32ZM581.249 1071.32H565.249V1141.63H581.249H597.249V1071.32H581.249ZM581.249 1141.63V1125.63H246.305V1141.63V1157.63H581.249V1141.63ZM246.305 1141.63H262.305V1071.32H246.305H230.305V1141.63H246.305ZM762.303 672.455L777.392 667.133L773.626 656.455H762.303V672.455ZM956.621 1223.45L941.532 1228.77L945.298 1239.45H956.621V1223.45ZM964.292 1223.45V1239.45H975.615L979.381 1228.77L964.292 1223.45ZM1158.61 672.455V656.455H1147.29L1143.52 667.133L1158.61 672.455ZM1241.71 672.455L1256.73 677.969L1264.63 656.455H1241.71V672.455ZM1001.37 1327V1343H1012.54L1016.39 1332.51L1001.37 1327ZM919.548 1327L904.528 1332.51L908.378 1343H919.548V1327ZM679.207 672.455V656.455H656.287L664.187 677.969L679.207 672.455ZM762.303 672.455L747.214 677.776L941.532 1228.77L956.621 1223.45L971.711 1218.13L777.392 667.133L762.303 672.455ZM956.621 1223.45V1239.45H964.292V1223.45V1207.45H956.621V1223.45ZM964.292 1223.45L979.381 1228.77L1173.7 677.776L1158.61 672.455L1143.52 667.133L949.203 1218.13L964.292 1223.45ZM1158.61 672.455V688.455H1241.71V672.455V656.455H1158.61V672.455ZM1241.71 672.455L1226.69 666.94L986.346 1321.49L1001.37 1327L1016.39 1332.51L1256.73 677.969L1241.71 672.455ZM1001.37 1327V1311H919.548V1327V1343H1001.37V1327ZM919.548 1327L934.567 1321.49L694.226 666.94L679.207 672.455L664.187 677.969L904.528 1332.51L919.548 1327ZM679.207 672.455V688.455H762.303V672.455V656.455H679.207V672.455ZM1760.34 877L1745.13 881.969L1748.74 893H1760.34V877ZM1732.54 819.152L1719.15 827.912L1719.21 828.008L1719.27 828.104L1732.54 819.152ZM1691.95 775.047L1682.1 787.658L1682.14 787.69L1682.18 787.722L1691.95 775.047ZM1677.88 1237.83L1685.7 1251.79L1685.72 1251.78L1685.73 1251.77L1677.88 1237.83ZM1745 1169.44L1730.96 1161.76L1730.95 1161.78L1730.94 1161.8L1745 1169.44ZM1769.29 1064.93L1772.59 1049.27L1753.29 1045.21V1064.93H1769.29ZM1793.58 1070.04V1086.04L1796.88 1054.38L1793.58 1070.04ZM1596.7 1070.04H1580.7V1086.04H1596.7V1070.04ZM1596.7 999.727V983.727H1580.7V999.727H1596.7ZM1845.99 999.727H1861.99V983.727H1845.99V999.727ZM1811.48 1210.66L1797.62 1202.66L1797.61 1202.69L1797.59 1202.72L1811.48 1210.66ZM1716.88 1303.35L1724.51 1317.41H1724.52L1724.53 1317.4L1716.88 1303.35ZM1426.04 1295.04L1417.56 1308.61L1417.58 1308.62L1417.59 1308.63L1426.04 1295.04ZM1323.76 1178.7L1309.36 1185.66L1309.37 1185.69L1309.38 1185.71L1323.76 1178.7ZM1308.1 860.061L1292.95 854.932L1292.94 854.955L1292.93 854.978L1308.1 860.061ZM1670.21 679.166L1664.93 694.268L1664.99 694.291L1665.06 694.313L1670.21 679.166ZM1750.43 722.952L1740.37 735.39L1740.43 735.44L1740.49 735.49L1750.43 722.952ZM1809.56 790.388L1795.85 798.636L1795.86 798.661L1795.88 798.686L1809.56 790.388ZM1842.16 877V893H1861.45L1857.88 874.045L1842.16 877ZM1760.34 877L1775.55 872.031C1768.1 849.24 1758.21 828.594 1745.8 810.2L1732.54 819.152L1719.27 828.104C1729.87 843.801 1738.52 861.72 1745.13 881.969L1760.34 877ZM1732.54 819.152L1745.92 810.392C1733.69 791.689 1718.95 775.649 1701.71 762.371L1691.95 775.047L1682.18 787.722C1696.48 798.735 1708.8 812.098 1719.15 827.912L1732.54 819.152ZM1691.95 775.047L1701.79 762.436C1684.68 749.074 1665.31 738.95 1643.8 732.014L1638.89 747.241L1633.98 762.469C1652.11 768.317 1668.1 776.73 1682.1 787.658L1691.95 775.047ZM1638.89 747.241L1643.8 732.014C1622.2 725.046 1598.79 721.653 1573.69 721.653V737.653V753.653C1595.9 753.653 1615.95 756.653 1633.98 762.469L1638.89 747.241ZM1573.69 737.653V721.653C1532 721.653 1493.76 732.468 1459.37 754.164L1467.91 767.696L1476.44 781.228C1505.55 762.867 1537.83 753.653 1573.69 753.653V737.653ZM1467.91 767.696L1459.37 754.164C1424.71 776.028 1397.59 808.014 1377.74 849.292L1392.16 856.226L1406.58 863.16C1424.23 826.454 1447.61 799.42 1476.44 781.228L1467.91 767.696ZM1392.16 856.226L1377.74 849.292C1357.68 891.009 1348.03 941.364 1348.03 999.727H1364.03H1380.03C1380.03 944.738 1389.14 899.425 1406.58 863.16L1392.16 856.226ZM1364.03 999.727H1348.03C1348.03 1058.11 1357.79 1108.49 1378.09 1150.23L1392.48 1143.23L1406.87 1136.23C1389.24 1099.98 1380.03 1054.69 1380.03 999.727H1364.03ZM1392.48 1143.23L1378.09 1150.23C1398.19 1191.55 1425.78 1223.53 1461.09 1245.37L1469.5 1231.76L1477.92 1218.15C1448.45 1199.93 1424.69 1172.89 1406.87 1136.23L1392.48 1143.23ZM1469.5 1231.76L1461.09 1245.37C1496.16 1267.06 1535.55 1277.8 1578.81 1277.8V1261.8V1245.8C1541.1 1245.8 1507.62 1236.52 1477.92 1218.15L1469.5 1231.76ZM1578.81 1261.8V1277.8C1618.64 1277.8 1654.43 1269.29 1685.7 1251.79L1677.88 1237.83L1670.07 1223.87C1644.24 1238.33 1613.98 1245.8 1578.81 1245.8V1261.8ZM1677.88 1237.83L1685.73 1251.77C1717.16 1234.08 1741.66 1209.08 1759.06 1177.08L1745 1169.44L1730.94 1161.8C1716.38 1188.6 1696.14 1209.19 1670.03 1223.89L1677.88 1237.83ZM1745 1169.44L1759.04 1177.11C1776.74 1144.74 1785.29 1107.16 1785.29 1064.93H1769.29H1753.29C1753.29 1102.8 1745.65 1134.9 1730.96 1161.76L1745 1169.44ZM1769.29 1064.93L1765.99 1080.58L1790.28 1085.7L1793.58 1070.04L1796.88 1054.38L1772.59 1049.27L1769.29 1064.93ZM1793.58 1070.04V1054.04H1596.7V1070.04V1086.04H1793.58V1070.04ZM1596.7 1070.04H1612.7V999.727H1596.7H1580.7V1070.04H1596.7ZM1596.7 999.727V1015.73H1845.99V999.727V983.727H1596.7V999.727ZM1845.99 999.727H1829.99V1070.04H1845.99H1861.99V999.727H1845.99ZM1845.99 1070.04H1829.99C1829.99 1121.62 1819 1165.64 1797.62 1202.66L1811.48 1210.66L1825.33 1218.67C1849.97 1176 1861.99 1126.27 1861.99 1070.04H1845.99ZM1811.48 1210.66L1797.59 1202.72C1776.26 1239.99 1746.88 1268.77 1709.22 1289.3L1716.88 1303.35L1724.53 1317.4C1767.41 1294.03 1801.1 1261.02 1825.36 1218.61L1811.48 1210.66ZM1716.88 1303.35L1709.25 1289.29C1671.84 1309.58 1628.51 1319.95 1578.81 1319.95V1335.95V1351.95C1633.08 1351.95 1681.79 1340.59 1724.51 1317.41L1716.88 1303.35ZM1578.81 1335.95V1319.95C1523.46 1319.95 1475.54 1306.96 1434.48 1281.45L1426.04 1295.04L1417.59 1308.63C1464.32 1337.66 1518.24 1351.95 1578.81 1351.95V1335.95ZM1426.04 1295.04L1434.51 1281.47C1393.6 1255.92 1361.45 1219.52 1338.15 1171.7L1323.76 1178.7L1309.38 1185.71C1335.08 1238.45 1371.12 1279.61 1417.56 1308.61L1426.04 1295.04ZM1323.76 1178.7L1338.17 1171.75C1315.15 1124.08 1303.33 1066.91 1303.33 999.727H1287.33H1271.33C1271.33 1070.61 1283.8 1132.76 1309.36 1185.66L1323.76 1178.7ZM1287.33 999.727H1303.33C1303.33 949.364 1310.07 904.566 1323.28 865.144L1308.1 860.061L1292.93 854.978C1278.44 898.226 1271.33 946.539 1271.33 999.727H1287.33ZM1308.1 860.061L1323.26 865.191C1336.74 825.375 1355.57 791.911 1379.59 764.495L1367.55 753.953L1355.51 743.411C1328.39 774.376 1307.6 811.65 1292.95 854.932L1308.1 860.061ZM1367.55 753.953L1379.59 764.495C1403.65 737.022 1432.03 716.052 1464.82 701.454L1458.32 686.837L1451.81 672.219C1414.72 688.729 1382.59 712.504 1355.51 743.411L1367.55 753.953ZM1458.32 686.837L1464.82 701.454C1497.53 686.897 1533.74 679.506 1573.69 679.506V663.506V647.506C1529.7 647.506 1488.99 655.668 1451.81 672.219L1458.32 686.837ZM1573.69 663.506V679.506C1606.58 679.506 1636.95 684.474 1664.93 694.268L1670.21 679.166L1675.5 664.064C1643.82 652.977 1609.84 647.506 1573.69 647.506V663.506ZM1670.21 679.166L1665.06 694.313C1693.41 703.965 1718.47 717.673 1740.37 735.39L1750.43 722.952L1760.5 710.513C1735.52 690.304 1707.1 674.822 1675.37 664.02L1670.21 679.166ZM1750.43 722.952L1740.49 735.49C1762.62 753.031 1781.06 774.051 1795.85 798.636L1809.56 790.388L1823.27 782.139C1806.53 754.31 1785.55 730.372 1760.37 710.414L1750.43 722.952ZM1809.56 790.388L1795.88 798.686C1810.59 822.936 1820.8 849.978 1826.43 879.955L1842.16 877L1857.88 874.045C1851.59 840.528 1840.07 809.828 1823.24 782.09L1809.56 790.388ZM1842.16 877V861H1760.34V877V893H1842.16V877Z" fill="#00B894"/>
</g>
</g>
<g filter="url(#filter1_d_22_207)">
<path d="M1969 1313C1692.86 1313 1469 1536.86 1469 1813C1469 2089.14 1692.86 2313 1969 2313C2103.27 2313 2225.18 2260.08 2315 2173.95C2409.91 2082.95 2469 1954.87 2469 1813C2469 1536.86 2245.14 1313 1969 1313Z" fill="#444444"/>
<path d="M1969 2313V2312C1693.41 2312 1470 2088.59 1470 1813H1469H1468C1468 2089.7 1692.3 2314 1969 2314V2313ZM2469 1813H2468C2468 2088.59 2244.59 2312 1969 2312V2313V2314C2245.7 2314 2470 2089.7 2470 1813H2469ZM1969 1313V1314C2244.59 1314 2468 1537.41 2468 1813H2469H2470C2470 1536.3 2245.7 1312 1969 1312V1313ZM1969 1313V1312C1692.3 1312 1468 1536.3 1468 1813H1469H1470C1470 1537.41 1693.41 1314 1969 1314V1313Z" fill="white" fill-opacity="0.1"/>
<g filter="url(#filter2_d_22_207)">
<mask id="mask1_22_207" style="mask-type:luminance" maskUnits="userSpaceOnUse" x="1469" y="1313" width="1000" height="1000">
<path d="M1884.07 1315.09C1883.48 1316.46 1881.92 1328.98 1880.15 1342.86C1876.83 1370.43 1874.09 1377.47 1863.33 1384.51C1855.5 1389.99 1842.58 1390.38 1832.99 1385.88C1828.69 1383.93 1820.66 1375.13 1809.51 1360.46C1800.31 1348.14 1792.29 1338.17 1791.7 1338.17C1790.92 1338.17 1648.06 1419.91 1646.3 1421.67C1645.71 1422.06 1648.84 1430.47 1652.95 1440.44C1669.98 1481.31 1670.57 1487.37 1658.43 1500.67C1645.32 1515.14 1637.1 1514.95 1597.77 1498.33C1586.81 1493.63 1577.41 1490.31 1577.02 1490.89C1575.46 1492.65 1493.46 1635.21 1493.46 1636.19C1493.46 1636.58 1503.44 1644.6 1515.77 1653.99C1530.25 1664.94 1539.25 1673.35 1541.21 1677.45C1545.71 1687.03 1545.12 1699.94 1539.84 1707.76C1532.8 1718.52 1525.75 1721.26 1496.01 1724.97L1469 1728.3V1813.36V1898.43L1496.01 1901.75C1525.75 1905.47 1532.8 1908.21 1539.84 1918.96C1545.12 1926.78 1545.71 1939.69 1541.21 1949.27C1539.25 1953.38 1530.25 1961.79 1515.77 1972.74C1503.44 1982.12 1493.46 1990.14 1493.46 1990.53C1493.46 1991.51 1575.46 2134.26 1577.02 2135.83C1577.41 2136.42 1585.83 2133.29 1595.81 2129.18C1636.71 2112.17 1642.78 2111.58 1656.08 2123.7C1670.57 2136.81 1670.37 2145.02 1653.74 2184.33C1649.04 2195.28 1645.71 2204.66 1646.3 2205.06C1648.06 2206.82 1790.72 2288.56 1791.7 2288.56C1792.29 2288.56 1800.31 2278.58 1809.51 2266.26C1820.66 2251.6 1828.69 2242.8 1832.99 2240.84C1842.58 2236.34 1855.5 2236.73 1863.33 2242.21C1874.09 2249.25 1876.83 2256.29 1880.55 2286.01L1883.87 2313H1969H2054.13L2057.45 2286.01C2061.17 2256.29 2063.91 2249.25 2074.67 2242.21C2082.5 2236.73 2095.42 2236.34 2105.01 2240.84C2109.31 2242.8 2117.34 2251.6 2128.49 2266.46C2138.47 2279.56 2146.49 2288.56 2147.86 2287.97C2150.41 2286.99 2290.14 2206.42 2291.7 2205.06C2292.29 2204.66 2288.96 2195.28 2284.26 2184.33C2267.63 2145.02 2267.43 2136.81 2281.92 2123.7C2295.22 2111.58 2301.29 2112.17 2342.19 2129.18C2352.17 2133.29 2360.58 2136.42 2360.98 2135.83C2362.74 2134.07 2444.54 1991.32 2444.54 1990.53C2444.54 1989.95 2434.56 1981.93 2422.23 1972.74C2407.55 1961.59 2398.75 1953.57 2396.79 1949.27C2392.29 1939.69 2392.68 1926.78 2398.16 1918.96C2405.2 1908.21 2412.25 1905.47 2441.99 1901.75L2469 1898.43V1813.36V1728.3L2441.99 1724.97C2412.25 1721.26 2405.2 1718.52 2398.16 1707.76C2392.68 1699.94 2392.29 1687.03 2396.79 1677.45C2398.75 1673.15 2407.55 1665.13 2422.23 1653.99C2434.56 1644.8 2444.54 1636.78 2444.54 1636.19C2444.54 1635.21 2362.74 1492.65 2360.98 1490.89C2360.58 1490.31 2351.19 1493.63 2340.23 1498.33C2300.9 1514.95 2292.68 1515.14 2279.57 1500.67C2267.43 1487.37 2268.02 1481.31 2285.05 1440.44C2289.16 1430.47 2292.29 1422.06 2291.7 1421.67C2290.14 1420.1 2150.41 1339.73 2147.86 1338.75C2146.49 1338.17 2138.47 1347.16 2128.49 1360.26C2117.34 1375.13 2109.31 1383.93 2105.01 1385.88C2095.42 1390.38 2082.5 1389.99 2074.67 1384.51C2063.91 1377.47 2061.17 1370.43 2057.45 1340.71L2054.13 1313.72L1969.39 1313.14C1902.66 1312.75 1884.66 1313.14 1884.07 1315.09ZM2004.22 1380.6C2014.01 1419.91 2050.21 1447.68 2091.11 1447.68C2115.18 1447.68 2135.14 1439.66 2153.15 1422.84L2162.15 1414.43L2189.94 1430.47C2216.16 1445.53 2217.73 1446.7 2216.75 1451.39C2212.25 1470.75 2211.47 1481.9 2213.42 1494.22C2219.88 1532.74 2250.6 1562.86 2289.16 1569.12C2300.7 1571.07 2305.6 1570.88 2319.29 1568.14C2328.1 1566.18 2335.73 1565.2 2336.32 1565.79C2336.91 1566.18 2344.15 1578.7 2352.76 1593.56L2368.22 1620.35L2359.8 1629.35C2332.41 1658.48 2326.93 1700.33 2345.91 1734.95C2356.67 1754.89 2379.76 1772.69 2402.07 1778.16L2411.27 1780.51V1813.36V1846.21L2402.07 1848.56C2379.76 1854.04 2356.67 1871.83 2345.91 1891.78C2326.93 1926.39 2332.41 1968.24 2359.8 1997.38L2368.22 2006.37L2352.17 2034.14C2337.1 2060.35 2335.93 2061.91 2331.23 2060.93C2311.86 2056.43 2300.7 2055.65 2288.37 2057.61C2249.82 2064.26 2219.68 2094.57 2213.42 2133.29C2211.47 2144.82 2211.66 2149.71 2214.4 2163.4C2216.36 2172.2 2217.34 2179.83 2216.75 2180.42C2216.36 2181 2203.83 2188.24 2188.96 2196.84L2162.15 2212.29L2153.15 2203.88C2123.99 2176.5 2082.11 2171.03 2047.47 2190C2027.51 2200.75 2009.7 2223.83 2004.22 2246.12L2001.88 2255.31H1969H1936.12L1933.77 2245.93C1928.3 2223.83 1910.49 2200.75 1890.53 2190C1855.89 2171.03 1814.01 2176.5 1785.05 2203.69L1776.05 2212.1L1749.04 2196.65C1734.17 2188.24 1721.64 2180.81 1721.25 2180.42C1720.66 2179.83 1721.64 2172.2 1723.6 2163.4C1726.34 2149.71 1726.53 2144.82 1724.58 2133.29C1718.32 2094.57 1688.18 2064.26 1649.63 2057.61C1637.3 2055.65 1626.14 2056.43 1606.77 2060.93C1602.07 2061.91 1600.9 2060.35 1585.83 2034.14L1569.78 2006.37L1578.2 1997.38C1595.03 1979.39 1603.05 1959.44 1603.05 1935.39C1603.05 1893.93 1575.65 1858.53 1535.93 1848.37L1526.73 1846.21V1813.36V1780.51L1535.73 1778.36C1575.46 1768.38 1603.05 1732.6 1603.05 1691.34C1603.05 1667.28 1595.03 1647.34 1578.2 1629.35L1569.78 1620.35L1585.24 1593.56C1593.85 1578.7 1601.09 1566.18 1601.68 1565.79C1602.27 1565.2 1609.9 1566.18 1618.71 1568.14C1638.86 1572.05 1656.08 1569.9 1675.26 1560.71C1700.9 1548.58 1719.68 1522.77 1724.58 1493.24C1726.53 1481.7 1726.34 1477.01 1723.6 1463.32C1721.64 1454.52 1720.66 1446.9 1721.25 1446.31C1721.64 1445.92 1734.17 1438.49 1749.04 1430.08L1776.05 1414.63L1785.05 1423.04C1802.86 1439.66 1822.82 1447.68 1846.89 1447.68C1887.79 1447.68 1923.99 1419.91 1933.77 1380.6L1936.12 1371.41H1969H2001.88L2004.22 1380.6Z" fill="white"/>
</mask>
<g mask="url(#mask1_22_207)">
<path d="M1884.07 1315.09C1883.48 1316.46 1881.92 1328.98 1880.15 1342.86C1876.83 1370.43 1874.09 1377.47 1863.33 1384.51C1855.5 1389.99 1842.58 1390.38 1832.99 1385.88C1828.69 1383.93 1820.66 1375.13 1809.51 1360.46C1800.31 1348.14 1792.29 1338.17 1791.7 1338.17C1790.92 1338.17 1648.06 1419.91 1646.3 1421.67C1645.71 1422.06 1648.84 1430.47 1652.95 1440.44C1669.98 1481.31 1670.57 1487.37 1658.43 1500.67C1645.32 1515.14 1637.1 1514.95 1597.77 1498.33C1586.81 1493.63 1577.41 1490.31 1577.02 1490.89C1575.46 1492.65 1493.46 1635.21 1493.46 1636.19C1493.46 1636.58 1503.44 1644.6 1515.77 1653.99C1530.25 1664.94 1539.25 1673.35 1541.21 1677.45C1545.71 1687.03 1545.12 1699.94 1539.84 1707.76C1532.8 1718.52 1525.75 1721.26 1496.01 1724.97L1469 1728.3V1813.36V1898.43L1496.01 1901.75C1525.75 1905.47 1532.8 1908.21 1539.84 1918.96C1545.12 1926.78 1545.71 1939.69 1541.21 1949.27C1539.25 1953.38 1530.25 1961.79 1515.77 1972.74C1503.44 1982.12 1493.46 1990.14 1493.46 1990.53C1493.46 1991.51 1575.46 2134.26 1577.02 2135.83C1577.41 2136.42 1585.83 2133.29 1595.81 2129.18C1636.71 2112.17 1642.78 2111.58 1656.08 2123.7C1670.57 2136.81 1670.37 2145.02 1653.74 2184.33C1649.04 2195.28 1645.71 2204.66 1646.3 2205.06C1648.06 2206.82 1790.72 2288.56 1791.7 2288.56C1792.29 2288.56 1800.31 2278.58 1809.51 2266.26C1820.66 2251.6 1828.69 2242.8 1832.99 2240.84C1842.58 2236.34 1855.5 2236.73 1863.33 2242.21C1874.09 2249.25 1876.83 2256.29 1880.55 2286.01L1883.87 2313H1969H2054.13L2057.45 2286.01C2061.17 2256.29 2063.91 2249.25 2074.67 2242.21C2082.5 2236.73 2095.42 2236.34 2105.01 2240.84C2109.31 2242.8 2117.34 2251.6 2128.49 2266.46C2138.47 2279.56 2146.49 2288.56 2147.86 2287.97C2150.41 2286.99 2290.14 2206.42 2291.7 2205.06C2292.29 2204.66 2288.96 2195.28 2284.26 2184.33C2267.63 2145.02 2267.43 2136.81 2281.92 2123.7C2295.22 2111.58 2301.29 2112.17 2342.19 2129.18C2352.17 2133.29 2360.58 2136.42 2360.98 2135.83C2362.74 2134.07 2444.54 1991.32 2444.54 1990.53C2444.54 1989.95 2434.56 1981.93 2422.23 1972.74C2407.55 1961.59 2398.75 1953.57 2396.79 1949.27C2392.29 1939.69 2392.68 1926.78 2398.16 1918.96C2405.2 1908.21 2412.25 1905.47 2441.99 1901.75L2469 1898.43V1813.36V1728.3L2441.99 1724.97C2412.25 1721.26 2405.2 1718.52 2398.16 1707.76C2392.68 1699.94 2392.29 1687.03 2396.79 1677.45C2398.75 1673.15 2407.55 1665.13 2422.23 1653.99C2434.56 1644.8 2444.54 1636.78 2444.54 1636.19C2444.54 1635.21 2362.74 1492.65 2360.98 1490.89C2360.58 1490.31 2351.19 1493.63 2340.23 1498.33C2300.9 1514.95 2292.68 1515.14 2279.57 1500.67C2267.43 1487.37 2268.02 1481.31 2285.05 1440.44C2289.16 1430.47 2292.29 1422.06 2291.7 1421.67C2290.14 1420.1 2150.41 1339.73 2147.86 1338.75C2146.49 1338.17 2138.47 1347.16 2128.49 1360.26C2117.34 1375.13 2109.31 1383.93 2105.01 1385.88C2095.42 1390.38 2082.5 1389.99 2074.67 1384.51C2063.91 1377.47 2061.17 1370.43 2057.45 1340.71L2054.13 1313.72L1969.39 1313.14C1902.66 1312.75 1884.66 1313.14 1884.07 1315.09ZM2004.22 1380.6C2014.01 1419.91 2050.21 1447.68 2091.11 1447.68C2115.18 1447.68 2135.14 1439.66 2153.15 1422.84L2162.15 1414.43L2189.94 1430.47C2216.16 1445.53 2217.73 1446.7 2216.75 1451.39C2212.25 1470.75 2211.47 1481.9 2213.42 1494.22C2219.88 1532.74 2250.6 1562.86 2289.16 1569.12C2300.7 1571.07 2305.6 1570.88 2319.29 1568.14C2328.1 1566.18 2335.73 1565.2 2336.32 1565.79C2336.91 1566.18 2344.15 1578.7 2352.76 1593.56L2368.22 1620.35L2359.8 1629.35C2332.41 1658.48 2326.93 1700.33 2345.91 1734.95C2356.67 1754.89 2379.76 1772.69 2402.07 1778.16L2411.27 1780.51V1813.36V1846.21L2402.07 1848.56C2379.76 1854.04 2356.67 1871.83 2345.91 1891.78C2326.93 1926.39 2332.41 1968.24 2359.8 1997.38L2368.22 2006.37L2352.17 2034.14C2337.1 2060.35 2335.93 2061.91 2331.23 2060.93C2311.86 2056.43 2300.7 2055.65 2288.37 2057.61C2249.82 2064.26 2219.68 2094.57 2213.42 2133.29C2211.47 2144.82 2211.66 2149.71 2214.4 2163.4C2216.36 2172.2 2217.34 2179.83 2216.75 2180.42C2216.36 2181 2203.83 2188.24 2188.96 2196.84L2162.15 2212.29L2153.15 2203.88C2123.99 2176.5 2082.11 2171.03 2047.47 2190C2027.51 2200.75 2009.7 2223.83 2004.22 2246.12L2001.88 2255.31H1969H1936.12L1933.77 2245.93C1928.3 2223.83 1910.49 2200.75 1890.53 2190C1855.89 2171.03 1814.01 2176.5 1785.05 2203.69L1776.05 2212.1L1749.04 2196.65C1734.17 2188.24 1721.64 2180.81 1721.25 2180.42C1720.66 2179.83 1721.64 2172.2 1723.6 2163.4C1726.34 2149.71 1726.53 2144.82 1724.58 2133.29C1718.32 2094.57 1688.18 2064.26 1649.63 2057.61C1637.3 2055.65 1626.14 2056.43 1606.77 2060.93C1602.07 2061.91 1600.9 2060.35 1585.83 2034.14L1569.78 2006.37L1578.2 1997.38C1595.03 1979.39 1603.05 1959.44 1603.05 1935.39C1603.05 1893.93 1575.65 1858.53 1535.93 1848.37L1526.73 1846.21V1813.36V1780.51L1535.73 1778.36C1575.46 1768.38 1603.05 1732.6 1603.05 1691.34C1603.05 1667.28 1595.03 1647.34 1578.2 1629.35L1569.78 1620.35L1585.24 1593.56C1593.85 1578.7 1601.09 1566.18 1601.68 1565.79C1602.27 1565.2 1609.9 1566.18 1618.71 1568.14C1638.86 1572.05 1656.08 1569.9 1675.26 1560.71C1700.9 1548.58 1719.68 1522.77 1724.58 1493.24C1726.53 1481.7 1726.34 1477.01 1723.6 1463.32C1721.64 1454.52 1720.66 1446.9 1721.25 1446.31C1721.64 1445.92 1734.17 1438.49 1749.04 1430.08L1776.05 1414.63L1785.05 1423.04C1802.86 1439.66 1822.82 1447.68 1846.89 1447.68C1887.79 1447.68 1923.99 1419.91 1933.77 1380.6L1936.12 1371.41H1969H2001.88L2004.22 1380.6Z" fill="#0F2838" stroke="black" stroke-width="12"/>
</g>
<g filter="url(#filter3_d_22_207)">
<path d="M1917.92 1472.12C1772.13 1495.78 1661.76 1601.19 1630.06 1746.87C1626.14 1764.86 1625.75 1772.88 1625.75 1813.36C1625.75 1853.84 1626.14 1861.86 1630.06 1879.85C1660.39 2019.67 1762.54 2121.75 1902.46 2152.06C1920.47 2155.97 1928.49 2156.36 1969 2156.36C2009.51 2156.36 2017.53 2155.97 2035.54 2152.06C2175.65 2121.75 2277.61 2019.87 2307.94 1879.85C2311.86 1861.86 2312.25 1853.84 2312.25 1813.36C2312.25 1772.88 2311.86 1764.86 2307.94 1746.87C2277.61 1607.25 2175.46 1504.78 2036.51 1475.05C2011.07 1469.58 1943.75 1467.82 1917.92 1472.12ZM2018.31 1531.57C2059.8 1538.8 2105.79 1558.36 2139.25 1583.39C2160.98 1599.62 2192.09 1632.08 2205.99 1653.01C2227.12 1684.88 2242.38 1721.06 2250.02 1757.63C2255.3 1782.27 2255.3 1844.06 2250.21 1868.12C2237.1 1929.13 2210.1 1978.02 2165.48 2020.65C2126.34 2058 2079.18 2082.44 2023.79 2094.37C1999.72 2099.46 1937.88 2099.46 1913.23 2094.18C1854.13 2081.86 1804.03 2053.89 1761.56 2009.7C1724.38 1970.78 1699.33 1922.87 1687.98 1869.09C1682.7 1844.06 1682.7 1782.66 1687.98 1757.63C1699.33 1703.85 1724.38 1655.94 1761.56 1617.03C1809.31 1567.36 1861.37 1540.76 1933.77 1529.22C1949.23 1526.68 1997.57 1528.05 2018.31 1531.57Z" fill="#E5E5E5"/>
<path d="M1969 2153.36C2009.51 2153.36 2017.24 2152.96 2034.9 2149.13L2034.9 2149.13C2173.87 2119.07 2274.93 2018.08 2305.01 1879.21L2305.01 1879.21C2308.85 1861.57 2309.25 1853.84 2309.25 1813.36C2309.25 1772.88 2308.85 1765.15 2305.01 1747.51L2305.01 1747.51C2274.93 1609.03 2173.67 1507.46 2035.89 1477.99L2035.88 1477.99C2023.46 1475.31 2000.51 1473.51 1977.29 1472.92C1954.8 1472.35 1932.47 1472.94 1919.63 1474.89L1918.42 1475.08L1918.4 1475.08C1773.84 1498.54 1664.43 1603.01 1632.99 1747.51C1629.15 1765.15 1628.75 1772.88 1628.75 1813.36C1628.75 1853.84 1629.15 1861.57 1632.99 1879.21L1632.99 1879.21C1663.07 2017.88 1764.33 2119.07 1903.1 2149.13L1903.1 2149.13C1920.76 2152.96 1928.49 2153.36 1969 2153.36ZM1968.73 2101.16C1947.82 2101.14 1926.62 2099.9 1913.81 2097.36L1912.6 2097.11C1852.9 2084.66 1802.27 2056.39 1759.4 2011.78L1759.39 2011.77C1721.82 1972.44 1696.51 1924.02 1685.05 1869.71C1682.34 1856.88 1681.02 1835.01 1681.02 1813.36C1681.02 1791.71 1682.34 1769.85 1685.05 1757.01C1696.51 1702.7 1721.82 1654.28 1759.39 1614.95L1759.4 1614.95C1807.63 1564.78 1860.29 1537.9 1933.29 1526.26V1526.26C1941.34 1524.94 1957.56 1524.66 1974.15 1525.12C1990.79 1525.59 2008.23 1526.82 2018.82 1528.61L2018.83 1528.61C2060.77 1535.93 2107.2 1555.67 2141.05 1580.99C2163.03 1597.41 2194.39 1630.12 2208.49 1651.35L2208.49 1651.35C2229.83 1683.53 2245.24 1720.06 2252.95 1757.02L2252.95 1757.02C2255.66 1769.67 2256.98 1791.53 2257 1813.09C2257.03 1834.66 2255.76 1856.38 2253.15 1868.74L2253.15 1868.75L2252.52 1871.62C2239.05 1931.88 2211.91 1980.43 2167.55 2022.82L2167.55 2022.82L2165.69 2024.58C2127.12 2060.76 2080.93 2084.69 2027.04 2096.73L2024.43 2097.3L2024.41 2097.31L2023.23 2097.55C2010.69 2099.99 1989.63 2101.18 1968.73 2101.16Z" stroke="black" stroke-width="6"/>
<path d="M1969 2153.36C2009.51 2153.36 2017.24 2152.96 2034.9 2149.13L2034.9 2149.13C2173.87 2119.07 2274.93 2018.08 2305.01 1879.21L2305.01 1879.21C2308.85 1861.57 2309.25 1853.84 2309.25 1813.36C2309.25 1772.88 2308.85 1765.15 2305.01 1747.51L2305.01 1747.51C2274.93 1609.03 2173.67 1507.46 2035.89 1477.99L2035.88 1477.99C2023.46 1475.31 2000.51 1473.51 1977.29 1472.92C1954.8 1472.35 1932.47 1472.94 1919.63 1474.89L1918.42 1475.08L1918.4 1475.08C1773.84 1498.54 1664.43 1603.01 1632.99 1747.51C1629.15 1765.15 1628.75 1772.88 1628.75 1813.36C1628.75 1853.84 1629.15 1861.57 1632.99 1879.21L1632.99 1879.21C1663.07 2017.88 1764.33 2119.07 1903.1 2149.13L1903.1 2149.13C1920.76 2152.96 1928.49 2153.36 1969 2153.36ZM1968.73 2101.16C1947.82 2101.14 1926.62 2099.9 1913.81 2097.36L1912.6 2097.11C1852.9 2084.66 1802.27 2056.39 1759.4 2011.78L1759.39 2011.77C1721.82 1972.44 1696.51 1924.02 1685.05 1869.71C1682.34 1856.88 1681.02 1835.01 1681.02 1813.36C1681.02 1791.71 1682.34 1769.85 1685.05 1757.01C1696.51 1702.7 1721.82 1654.28 1759.39 1614.95L1759.4 1614.95C1807.63 1564.78 1860.29 1537.9 1933.29 1526.26V1526.26C1941.34 1524.94 1957.56 1524.66 1974.15 1525.12C1990.79 1525.59 2008.23 1526.82 2018.82 1528.61L2018.83 1528.61C2060.77 1535.93 2107.2 1555.67 2141.05 1580.99C2163.03 1597.41 2194.39 1630.12 2208.49 1651.35L2208.49 1651.35C2229.83 1683.53 2245.24 1720.06 2252.95 1757.02L2252.95 1757.02C2255.66 1769.67 2256.98 1791.53 2257 1813.09C2257.03 1834.66 2255.76 1856.38 2253.15 1868.74L2253.15 1868.75L2252.52 1871.62C2239.05 1931.88 2211.91 1980.43 2167.55 2022.82L2167.55 2022.82L2165.69 2024.58C2127.12 2060.76 2080.93 2084.69 2027.04 2096.73L2024.43 2097.3L2024.41 2097.31L2023.23 2097.55C2010.69 2099.99 1989.63 2101.18 1968.73 2101.16Z" stroke="black" stroke-opacity="0.2" stroke-width="6"/>
</g>
<path d="M1933.67 1951.26C1934.62 1949.31 1935.97 1946.5 1937.67 1942.93C1941.06 1935.79 1945.83 1925.67 1951.5 1913.56C1962.86 1889.34 1977.85 1857.17 1992.8 1825C2007.74 1792.84 2022.64 1760.67 2033.8 1736.45C2039.38 1724.34 2044.02 1714.22 2047.27 1707.08C2048.89 1703.51 2050.17 1700.69 2051.03 1698.74C2051.2 1698.37 2051.35 1698.03 2051.48 1697.72C2050.8 1697.3 2049.91 1696.78 2048.83 1696.17C2045.86 1694.52 2041.65 1692.33 2036.7 1689.87C2027.54 1685.31 2015.98 1679.88 2005.5 1675.23C2005.49 1675.25 2005.48 1675.27 2005.47 1675.29C2004.62 1676.95 2003.39 1679.43 2001.82 1682.65C1998.68 1689.08 1994.2 1698.41 1988.71 1709.96C1977.73 1733.05 1962.72 1764.96 1946.28 1800.16C1929.84 1835.35 1914.93 1867.66 1904.12 1891.36C1898.71 1903.21 1894.34 1912.91 1891.32 1919.73C1889.81 1923.14 1888.64 1925.82 1887.85 1927.7C1887.59 1928.32 1887.38 1928.85 1887.21 1929.28C1887.27 1929.33 1887.34 1929.4 1887.42 1929.46C1888.35 1930.21 1889.83 1931.2 1891.93 1932.43C1896.09 1934.88 1902.3 1938.06 1910.39 1941.86L1910.39 1941.86C1917.31 1945.08 1923.64 1947.9 1928.26 1949.89C1930.32 1950.78 1932.04 1951.5 1933.3 1952.01C1933.41 1951.78 1933.54 1951.53 1933.67 1951.26Z" fill="#00B894" stroke="#E5E5E5" stroke-width="6"/>
<path d="M1864.14 1903.15L1882.56 1884.74L1849.07 1851.27L1813.26 1815.48L1811.14 1813.36L1813.26 1811.24L1849.07 1775.45L1882.56 1741.99L1864.53 1723.96C1859.07 1718.51 1853.95 1713.54 1850.16 1709.94C1848.34 1708.22 1846.84 1706.83 1845.75 1705.84C1845.03 1706.52 1844.1 1707.39 1843 1708.45C1840.06 1711.27 1835.88 1715.34 1830.74 1720.39C1820.48 1730.48 1806.44 1744.4 1791.08 1759.75L1737.43 1813.36L1791.47 1867.36L1845.71 1921.56L1864.14 1903.15Z" fill="#00B894" stroke="#E5E5E5" stroke-width="6"/>
<path d="M2146.53 1867.36L2200.57 1813.36L2146.92 1759.75C2131.56 1744.4 2117.52 1730.48 2107.26 1720.39C2102.12 1715.34 2097.94 1711.27 2095.01 1708.45C2093.88 1707.37 2092.93 1706.48 2092.2 1705.8C2091.11 1706.78 2089.59 1708.19 2087.75 1709.94C2084.9 1712.64 2081.3 1716.11 2077.33 1719.99L2073.25 1723.98L2055.42 1741.97L2088.93 1775.45L2124.74 1811.24L2126.86 1813.36L2124.74 1815.48L2088.93 1851.27L2055.43 1884.74L2073.86 1903.15L2092.29 1921.56L2146.53 1867.36Z" fill="#00B894" stroke="#E5E5E5" stroke-width="6"/>
</g>
</g>
<defs>
<filter id="filter0_d_22_207" x="105.607" y="647.506" width="1760.38" height="712.444" filterUnits="userSpaceOnUse" color-interpolation-filters="sRGB">
<feFlood flood-opacity="0" result="BackgroundImageFix"/>
<feColorMatrix in="SourceAlpha" type="matrix" values="0 0 0 0 0 0 0 0 0 0 0 0 0 0 0 0 0 0 127 0" result="hardAlpha"/>
<feOffset dy="4"/>
<feGaussianBlur stdDeviation="2"/>
<feComposite in2="hardAlpha" operator="out"/>
<feColorMatrix type="matrix" values="0 0 0 0 0 0 0 0 0 0 0 0 0 0 0 0 0 0 0.25 0"/>
<feBlend mode="normal" in2="BackgroundImageFix" result="effect1_dropShadow_22_207"/>
<feBlend mode="normal" in="SourceGraphic" in2="effect1_dropShadow_22_207" result="shape"/>
</filter>
<filter id="filter1_d_22_207" x="1425" y="1273" width="1112" height="1096" filterUnits="userSpaceOnUse" color-interpolation-filters="sRGB">
<feFlood flood-opacity="0" result="BackgroundImageFix"/>
<feColorMatrix in="SourceAlpha" type="matrix" values="0 0 0 0 0 0 0 0 0 0 0 0 0 0 0 0 0 0 127 0" result="hardAlpha"/>
<feOffset dy="4"/>
<feGaussianBlur stdDeviation="2"/>
<feComposite in2="hardAlpha" operator="out"/>
<feColorMatrix type="matrix" values="0 0 0 0 0 0 0 0 0 0 0 0 0 0 0 0 0 0 0.25 0"/>
<feBlend mode="normal" in2="BackgroundImageFix" result="effect1_dropShadow_22_207"/>
<feBlend mode="normal" in="SourceGraphic" in2="effect1_dropShadow_22_207" result="shape"/>
</filter>
<filter id="filter2_d_22_207" x="1469" y="1313" width="1024" height="1008" filterUnits="userSpaceOnUse" color-interpolation-filters="sRGB">
<feFlood flood-opacity="0" result="BackgroundImageFix"/>
<feColorMatrix in="SourceAlpha" type="matrix" values="0 0 0 0 0 0 0 0 0 0 0 0 0 0 0 0 0 0 127 0" result="hardAlpha"/>
<feOffset dx="20" dy="4"/>
<feGaussianBlur stdDeviation="2"/>
<feComposite in2="hardAlpha" operator="out"/>
<feColorMatrix type="matrix" values="0 0 0 0 0 0 0 0 0 0 0 0 0 0 0 0 0 0 0.25 0"/>
<feBlend mode="normal" in2="BackgroundImageFix" result="effect1_dropShadow_22_207"/>
<feBlend mode="normal" in="SourceGraphic" in2="effect1_dropShadow_22_207" result="shape"/>
</filter>
<filter id="filter3_d_22_207" x="1621.75" y="1469.71" width="694.498" height="694.648" filterUnits="userSpaceOnUse" color-interpolation-filters="sRGB">
<feFlood flood-opacity="0" result="BackgroundImageFix"/>
<feColorMatrix in="SourceAlpha" type="matrix" values="0 0 0 0 0 0 0 0 0 0 0 0 0 0 0 0 0 0 127 0" result="hardAlpha"/>
<feOffset dy="4"/>
<feGaussianBlur stdDeviation="2"/>
<feComposite in2="hardAlpha" operator="out"/>
<feColorMatrix type="matrix" values="0 0 0 0 0 0 0 0 0 0 0 0 0 0 0 0 0 0 0.25 0"/>
<feBlend mode="normal" in2="BackgroundImageFix" result="effect1_dropShadow_22_207"/>
<feBlend mode="normal" in="SourceGraphic" in2="effect1_dropShadow_22_207" result="shape"/>
</filter>
</defs>
</svg>
