<svg width="512" height="512" version="1.1" xmlns="http://www.w3.org/2000/svg" desc="Created with imagetracer.js version 1.2.6" ><path fill="rgb(0,0,0)" stroke="rgb(0,0,0)" stroke-width="1" opacity="0.9411764705882353" d="M 373.5 81 L 335 120.5 L 334.5 122 L 334 120.5 L 373.5 81 Z " /><path fill="rgb(0,0,0)" stroke="rgb(0,0,0)" stroke-width="1" opacity="0.9411764705882353" d="M 194.5 112 L 207 112.5 L 194.5 113 L 194.5 112 Z " /><path fill="rgb(0,0,0)" stroke="rgb(0,0,0)" stroke-width="1" opacity="0.9411764705882353" d="M 430.5 138 L 391.5 178 L 390 177.5 L 430.5 138 Z " /><path fill="rgb(0,0,0)" stroke="rgb(0,0,0)" stroke-width="1" opacity="0.9411764705882353" d="M 77.5 154 L 76.5 156 L 77.5 154 Z " /><path fill="rgb(0,0,0)" stroke="rgb(0,0,0)" stroke-width="1" opacity="0.9411764705882353" d="M 72.5 158 L 70.5 161 L 72.5 158 Z " /><path fill="rgb(0,0,0)" stroke="rgb(0,0,0)" stroke-width="1" opacity="0.9411764705882353" d="M 65.5 164 L 52.5 178 L 65.5 164 Z " /><path fill="rgb(0,0,0)" stroke="rgb(0,0,0)" stroke-width="1" opacity="0.9411764705882353" d="M 48.5 182 L 46.5 185 L 48.5 182 Z " /><path fill="rgb(0,0,0)" stroke="rgb(0,0,0)" stroke-width="1" opacity="0.9411764705882353" d="M 101.5 185 L 100.5 187 L 101.5 185 Z " /><path fill="rgb(0,0,0)" stroke="rgb(0,0,0)" stroke-width="1" opacity="0.9411764705882353" d="M 43.5 188 L 42.5 190 L 43.5 188 Z " /><path fill="rgb(0,0,0)" stroke="rgb(0,0,0)" stroke-width="1" opacity="0.9411764705882353" d="M 96.5 189 L 94.5 192 L 96.5 189 Z " /><path fill="rgb(0,0,0)" stroke="rgb(0,0,0)" stroke-width="1" opacity="0.9411764705882353" d="M 194.5 192 L 205 192.5 L 194.5 193 L 194.5 192 Z " /><path fill="rgb(0,0,0)" stroke="rgb(0,0,0)" stroke-width="1" opacity="0.9411764705882353" d="M 37.5 196 L 36.5 198 L 37.5 196 Z " /><path fill="rgb(0,0,0)" stroke="rgb(0,0,0)" stroke-width="1" opacity="0.9411764705882353" d="M 79.5 206 L 77.5 209 L 79.5 206 Z " /><path fill="rgb(0,0,0)" stroke="rgb(0,0,0)" stroke-width="1" opacity="0.9411764705882353" d="M 74.5 212 L 73.5 214 L 74.5 212 Z " /><path fill="rgb(0,0,0)" stroke="rgb(0,0,0)" stroke-width="1" opacity="0.9411764705882353" d="M 125.5 218 L 124.5 220 L 125.5 218 Z " /><path fill="rgb(0,0,0)" stroke="rgb(0,0,0)" stroke-width="1" opacity="0.9411764705882353" d="M 119.5 223 L 111.5 232 L 119.5 223 Z " /><path fill="rgb(0,0,0)" stroke="rgb(0,0,0)" stroke-width="1" opacity="0.9411764705882353" d="M 107.5 236 L 106.5 238 L 107.5 236 Z " /><path fill="rgb(0,0,0)" stroke="rgb(0,0,0)" stroke-width="1" opacity="0.9411764705882353" d="M 101.5 244 L 100.5 246 L 101.5 244 Z " /><path fill="rgb(0,0,0)" stroke="rgb(0,0,0)" stroke-width="1" opacity="0.9411764705882353" d="M 149.5 249 L 148.5 251 L 149.5 249 Z " /><path fill="rgb(0,0,0)" stroke="rgb(0,0,0)" stroke-width="1" opacity="0.9411764705882353" d="M 138.5 260 L 137.5 262 L 138.5 260 Z " /><path fill="rgb(0,0,0)" stroke="rgb(0,0,0)" stroke-width="1" opacity="0.9411764705882353" d="M 0.5 304 L 1 310.5 L 0 310.5 L 0.5 304 Z " /><path fill="rgb(0,0,0)" stroke="rgb(0,0,0)" stroke-width="1" opacity="0.9411764705882353" d="M 80.5 305 L 81 309.5 L 80 309.5 L 80.5 305 Z " /><path fill="rgb(0,0,0)" stroke="rgb(0,0,0)" stroke-width="1" opacity="0.9411764705882353" d="M 399.5 305 L 400 316.5 L 399 316.5 L 399.5 305 Z " /><path fill="rgb(0,0,0)" stroke="rgb(0,0,0)" stroke-width="1" opacity="0.9411764705882353" d="M 319.5 308 L 320 317.5 L 319 317.5 L 319.5 308 Z " /><path fill="rgb(0,0,0)" stroke="rgb(0,0,0)" stroke-width="1" opacity="0.9411764705882353" d="M 0.5 313 L 1 320.5 L 0 320.5 L 0.5 313 Z " /><path fill="rgb(0,0,0)" stroke="rgb(0,0,0)" stroke-width="1" opacity="0.9411764705882353" d="M 80.5 314 L 81 318.5 L 80 318.5 L 80.5 314 Z " /><path fill="rgb(0,0,0)" stroke="rgb(0,0,0)" stroke-width="1" opacity="0.9411764705882353" d="M 136.5 361 L 137.5 363 L 136.5 361 Z " /><path fill="rgb(0,0,0)" stroke="rgb(0,0,0)" stroke-width="1" opacity="0.9411764705882353" d="M 262.5 362 L 261.5 364 L 262.5 362 Z " /><path fill="rgb(0,0,0)" stroke="rgb(0,0,0)" stroke-width="1" opacity="0.9411764705882353" d="M 251.5 373 L 250.5 375 L 251.5 373 Z " /><path fill="rgb(0,0,0)" stroke="rgb(0,0,0)" stroke-width="1" opacity="0.9411764705882353" d="M 293.5 386 L 292.5 388 L 293.5 386 Z " /><path fill="rgb(0,0,0)" stroke="rgb(0,0,0)" stroke-width="1" opacity="0.9411764705882353" d="M 111.5 392 L 119.5 401 L 111.5 392 Z " /><path fill="rgb(0,0,0)" stroke="rgb(0,0,0)" stroke-width="1" opacity="0.9411764705882353" d="M 288.5 392 L 280.5 401 L 288.5 392 Z " /><path fill="rgb(0,0,0)" stroke="rgb(0,0,0)" stroke-width="1" opacity="0.9411764705882353" d="M 67.5 402 L 68.5 404 L 67.5 402 Z " /><path fill="rgb(0,0,0)" stroke="rgb(0,0,0)" stroke-width="1" opacity="0.9411764705882353" d="M 275.5 404 L 274.5 406 L 275.5 404 Z " /><path fill="rgb(0,0,0)" stroke="rgb(0,0,0)" stroke-width="1" opacity="0.9411764705882353" d="M 267.5 410 L 266.5 412 L 267.5 410 Z " /><path fill="rgb(0,0,0)" stroke="rgb(0,0,0)" stroke-width="1" opacity="0.9411764705882353" d="M 326.5 410 L 325.5 412 L 326.5 410 Z " /><path fill="rgb(0,0,0)" stroke="rgb(0,0,0)" stroke-width="1" opacity="0.9411764705882353" d="M 77.5 415 L 79.5 418 L 77.5 415 Z " /><path fill="rgb(0,0,0)" stroke="rgb(0,0,0)" stroke-width="1" opacity="0.9411764705882353" d="M 322.5 415 L 320.5 418 L 322.5 415 Z " /><path fill="rgb(0,0,0)" stroke="rgb(0,0,0)" stroke-width="1" opacity="0.9411764705882353" d="M 36.5 426 L 37.5 428 L 36.5 426 Z " /><path fill="rgb(0,0,0)" stroke="rgb(0,0,0)" stroke-width="1" opacity="0.9411764705882353" d="M 193.5 431 L 198 431.5 L 193.5 432 L 193.5 431 Z " /><path fill="rgb(0,0,0)" stroke="rgb(0,0,0)" stroke-width="1" opacity="0.9411764705882353" d="M 202.5 431 L 207 431.5 L 202.5 432 L 202.5 431 Z " /><path fill="rgb(0,0,0)" stroke="rgb(0,0,0)" stroke-width="1" opacity="0.9411764705882353" d="M 94.5 432 L 96.5 435 L 94.5 432 Z " /><path fill="rgb(0,0,0)" stroke="rgb(0,0,0)" stroke-width="1" opacity="0.9411764705882353" d="M 305.5 432 L 303.5 435 L 305.5 432 Z " /><path fill="rgb(0,0,0)" stroke="rgb(0,0,0)" stroke-width="1" opacity="0.9411764705882353" d="M 42.5 434 L 43.5 436 L 42.5 434 Z " /><path fill="rgb(0,0,0)" stroke="rgb(0,0,0)" stroke-width="1" opacity="0.9411764705882353" d="M 357.5 434 L 356.5 436 L 357.5 434 Z " /><path fill="rgb(0,0,0)" stroke="rgb(0,0,0)" stroke-width="1" opacity="0.9411764705882353" d="M 100.5 437 L 101.5 439 L 100.5 437 Z " /><path fill="rgb(0,0,0)" stroke="rgb(0,0,0)" stroke-width="1" opacity="0.9411764705882353" d="M 299.5 437 L 298.5 439 L 299.5 437 Z " /><path fill="rgb(0,0,0)" stroke="rgb(0,0,0)" stroke-width="1" opacity="0.9411764705882353" d="M 46.5 439 L 47.5 441 L 46.5 439 Z " /><path fill="rgb(0,0,0)" stroke="rgb(0,0,0)" stroke-width="1" opacity="0.9411764705882353" d="M 353.5 439 L 351.5 442 L 353.5 439 Z " /><path fill="rgb(0,0,0)" stroke="rgb(0,0,0)" stroke-width="1" opacity="0.9411764705882353" d="M 108.5 443 L 109.5 445 L 108.5 443 Z " /><path fill="rgb(0,0,0)" stroke="rgb(0,0,0)" stroke-width="1" opacity="0.9411764705882353" d="M 52.5 446 L 65.5 460 L 52.5 446 Z " /><path fill="rgb(0,0,0)" stroke="rgb(0,0,0)" stroke-width="1" opacity="0.9411764705882353" d="M 346.5 447 L 335.5 459 L 346.5 447 Z " /><path fill="rgb(0,0,0)" stroke="rgb(0,0,0)" stroke-width="1" opacity="0.9411764705882353" d="M 329.5 463 L 327.5 466 L 329.5 463 Z " /><path fill="rgb(0,0,0)" stroke="rgb(0,0,0)" stroke-width="1" opacity="0.9411764705882353" d="M 71.5 464 L 72.5 466 L 71.5 464 Z " /><path fill="rgb(0,0,0)" stroke="rgb(0,0,0)" stroke-width="1" opacity="0.9411764705882353" d="M 76.5 468 L 77.5 470 L 76.5 468 Z " /><path fill="rgb(0,0,0)" stroke="rgb(0,0,0)" stroke-width="1" opacity="0.9411764705882353" d="M 323.5 468 L 322.5 470 L 323.5 468 Z " /><path fill="rgb(0,0,0)" stroke="rgb(0,0,0)" stroke-width="1" opacity="0.9411764705882353" d="M 84.5 474 L 85.5 476 L 84.5 474 Z " /><path fill="rgb(0,0,0)" stroke="rgb(0,0,0)" stroke-width="1" opacity="0.9411764705882353" d="M 191.5 511 L 199 511.5 L 191.5 512 L 191.5 511 Z " /><path fill="rgb(0,0,0)" stroke="rgb(0,0,0)" stroke-width="1" opacity="0.9411764705882353" d="M 201.5 511 L 209 511.5 L 201.5 512 L 201.5 511 Z " /><path fill="rgb(0,0,0)" stroke="rgb(0,0,0)" stroke-width="1" opacity="1" d="M 398.5 1 L 417 95 L 511 113.5 L 404.5 220 L 401.5 220 L 333.5 206 L 213.5 325 L 187 297.5 L 306 178.5 L 306 176.5 L 292 107.5 L 398.5 1 Z M 374 81 L 334 121 L 343 167 L 346 169 L 392 178 L 431 139 L 431 137 L 384 128 L 375 85 Q 376 80 374 81 Z " /><path fill="rgb(0,0,0)" stroke="rgb(0,0,0)" stroke-width="1" opacity="1" d="M 181.5 113 L 218.5 113 L 219.5 114 L 227.5 114 L 243.5 117 L 253 120.5 L 261 163 L 246.5 158 L 224.5 153 Q 218.2 154.8 216.5 152 L 183.5 152 L 153.5 158 L 124.5 170 Q 96.6 185.1 77 208.5 Q 56.5 232 46 265.5 L 40 294.5 L 40 329.5 L 46 358.5 L 59 389.5 Q 74 416 96.5 435 Q 120 455.5 153.5 466 L 182.5 472 L 216.5 472 L 246.5 466 L 275.5 454 Q 303.4 438.9 323 415.5 Q 343.4 391.9 354 358.5 L 360 328.5 L 360 295.5 L 354 265.5 L 349 251 L 377.5 256 L 382.5 258 L 387.5 258 L 393 260.5 L 399 293.5 L 399 330.5 L 392 367.5 Q 385.7 388.7 376 406.5 Q 357.9 439.4 330.5 463 Q 305 485.5 270.5 499 L 239.5 508 L 220.5 510 L 219.5 511 L 201.5 511 L 199.5 512 L 198.5 511 L 180.5 511 L 179.5 510 L 160.5 508 L 144.5 504 L 117.5 494 Q 76 474.5 48 441.5 Q 26 416.5 13 382.5 L 4 351.5 L 2 332.5 L 1 331.5 L 1 313.5 L 0 311.5 L 1 310.5 L 1 292.5 L 2 291.5 L 4 272.5 L 8 256.5 L 18 229.5 Q 37.1 188.6 69.5 161 Q 93.1 140.1 124.5 127 L 160.5 116 L 165.5 116 L 172.5 114 L 180.5 114 L 181.5 113 Z " /><path fill="rgb(0,0,0)" stroke="rgb(0,0,0)" stroke-width="1" opacity="1" d="M 185.5 193 L 214.5 193 L 230 196.5 L 194.5 232 L 178.5 234 L 159.5 242 Q 146.4 249.9 137 261.5 Q 127 273.5 122 290.5 L 120 299.5 L 120 324.5 Q 126.7 357.8 149.5 375 Q 161.5 385 178.5 390 L 187.5 392 L 212.5 392 Q 245.8 385.3 263 362.5 Q 271.1 352.6 276 339.5 L 280 323.5 L 280 317.5 L 315.5 282 L 319 297.5 L 319 326.5 Q 310.2 377.7 276.5 404 Q 262 416.5 242.5 424 L 221.5 430 L 198.5 432 L 197.5 431 L 184.5 431 L 173.5 429 L 152.5 422 Q 124.9 409.6 107 387.5 Q 95.2 373.3 88 354.5 L 82 333.5 L 80 310.5 L 81 309.5 L 81 296.5 L 83 285.5 L 90 264.5 Q 102.1 237.6 123.5 220 Q 136.1 209.1 152.5 202 L 169.5 196 L 185.5 193 Z " /><path fill="rgb(0,0,0)" stroke="rgb(0,0,0)" stroke-width="1" opacity="0" d="M 0 0 L 398 0.5 L 291 108.5 L 305 178.5 L 186 298.5 L 214.5 326 L 333.5 207 L 337.5 207 L 404.5 221 L 512 114.5 L 512 512 L 216.5 512 L 216.5 511 L 231.5 510 L 254.5 505 Q 279.4 497.9 299.5 486 Q 329.2 468.7 351 443.5 Q 374.4 417.4 388 381.5 L 394 362.5 L 398 343.5 L 399 327.5 L 400 326.5 L 400 297.5 L 399 296.5 L 399 287.5 L 398 286.5 L 397 274.5 L 393 259 L 347.5 250 L 348 251.5 L 353 264.5 L 357 280.5 L 358 292.5 L 359 293.5 L 359 302.5 L 360 303.5 L 360 320.5 L 359 321.5 L 359 331.5 L 358 332.5 L 357 343.5 L 353 359.5 L 339 391.5 Q 324.2 416.7 302.5 435 Q 279.5 454.5 247.5 465 L 219.5 471 L 190.5 472 L 189.5 471 L 180.5 471 L 179.5 470 L 167.5 469 L 152.5 465 Q 134.9 459.6 120.5 451 Q 95.2 436.3 77 414.5 Q 57.5 391.5 47 359.5 L 41 331.5 L 40 302.5 L 41 301.5 L 42 285.5 L 47 264.5 Q 52.4 246.9 61 232.5 Q 75.7 207.2 97.5 189 Q 118.4 171.4 146.5 161 L 159.5 157 L 180.5 153 L 208.5 152 L 209.5 153 L 219.5 153 L 236.5 156 L 250.5 160 L 261.5 165 L 262 161.5 L 253 119 L 242.5 116 L 225.5 114 L 224.5 113 L 215.5 113 L 214.5 112 L 185.5 112 L 184.5 113 L 168.5 114 L 145.5 119 Q 121.9 125.9 102.5 137 Q 70.8 154.8 48 181.5 Q 28 204.5 15 234.5 L 4 269.5 L 0.5 296 L 0 0 Z M 189 192 L 188 193 L 176 194 L 156 200 Q 137 207 124 219 Q 105 234 93 257 L 83 283 L 80 300 L 80 325 L 85 349 L 94 370 L 107 389 Q 122 406 143 418 L 164 427 L 188 432 L 213 432 L 233 428 Q 258 420 277 405 Q 292 392 303 375 Q 311 361 316 345 L 320 324 L 320 302 L 319 301 L 318 288 L 316 281 L 280 317 L 276 338 Q 271 351 263 362 L 243 380 L 223 389 L 207 392 L 194 392 L 178 389 Q 162 384 151 375 Q 137 365 129 350 L 123 335 L 120 319 L 120 306 L 123 290 Q 128 274 137 263 Q 156 237 196 232 L 231 197 L 225 194 L 212 193 L 211 192 L 189 192 Z " /><path fill="rgb(0,0,0)" stroke="rgb(0,0,0)" stroke-width="1" opacity="0" d="M 399 0 L 512 0 L 512 113 L 418 94 L 399 0 Z " /><path fill="rgb(0,0,0)" stroke="rgb(0,0,0)" stroke-width="1" opacity="0" d="M 373.5 82 L 375 83.5 L 383 127.5 L 384.5 129 L 428.5 137 L 430 138.5 L 391.5 177 L 389.5 177 L 344 168 L 335 120.5 L 373.5 82 Z " /><path fill="rgb(0,0,0)" stroke="rgb(0,0,0)" stroke-width="1" opacity="0" d="M 0.5 328 L 2 344.5 L 7 366.5 L 19 398.5 Q 38.2 437.3 69.5 464 Q 92.5 484 122.5 497 L 157.5 508 L 184 511.5 L 0 512 L 0.5 328 Z " /><path fill="rgb(0,0,0)" stroke="rgb(0,0,0)" stroke-width="1" opacity="0.6352941176470588" d="M 398.5 0 L 292 107.5 L 291.5 109 L 291 107.5 L 398.5 0 Z " /><path fill="rgb(0,0,0)" stroke="rgb(0,0,0)" stroke-width="1" opacity="0.6352941176470588" d="M 417.5 92 L 418 94 L 420 94.5 L 418.5 95 L 417.5 92 Z " /><path fill="rgb(0,0,0)" stroke="rgb(0,0,0)" stroke-width="1" opacity="0.6352941176470588" d="M 185.5 112 L 194 112.5 L 185.5 113 L 185.5 112 Z " /><path fill="rgb(0,0,0)" stroke="rgb(0,0,0)" stroke-width="1" opacity="0.6352941176470588" d="M 207.5 112 L 215 112.5 L 207.5 113 L 207.5 112 Z " /><path fill="rgb(0,0,0)" stroke="rgb(0,0,0)" stroke-width="1" opacity="0.6352941176470588" d="M 175.5 113 L 179 113.5 L 175.5 114 L 175.5 113 Z " /><path fill="rgb(0,0,0)" stroke="rgb(0,0,0)" stroke-width="1" opacity="0.6352941176470588" d="M 221.5 113 L 225 113.5 L 221.5 114 L 221.5 113 Z " /><path fill="rgb(0,0,0)" stroke="rgb(0,0,0)" stroke-width="1" opacity="0.6352941176470588" d="M 511.5 113 L 404.5 221 L 403 220.5 L 511.5 113 Z " /><path fill="rgb(0,0,0)" stroke="rgb(0,0,0)" stroke-width="1" opacity="0.6352941176470588" d="M 168.5 114 L 171 114.5 L 168.5 115 L 168.5 114 Z " /><path fill="rgb(0,0,0)" stroke="rgb(0,0,0)" stroke-width="1" opacity="0.6352941176470588" d="M 229.5 114 L 232 114.5 L 229.5 115 L 229.5 114 Z " /><path fill="rgb(0,0,0)" stroke="rgb(0,0,0)" stroke-width="1" opacity="0.6352941176470588" d="M 235.5 115 L 238 115.5 L 235.5 116 L 235.5 115 Z " /><path fill="rgb(0,0,0)" stroke="rgb(0,0,0)" stroke-width="1" opacity="0.6352941176470588" d="M 240.5 116 L 243 116.5 L 240.5 117 L 240.5 116 Z " /><path fill="rgb(0,0,0)" stroke="rgb(0,0,0)" stroke-width="1" opacity="0.6352941176470588" d="M 253.5 121 L 254 123.5 L 253 123.5 L 253.5 121 Z " /><path fill="rgb(0,0,0)" stroke="rgb(0,0,0)" stroke-width="1" opacity="0.6352941176470588" d="M 335.5 123 L 336 125.5 L 335 125.5 L 335.5 123 Z " /><path fill="rgb(0,0,0)" stroke="rgb(0,0,0)" stroke-width="1" opacity="0.6352941176470588" d="M 254.5 126 L 255 128.5 L 254 128.5 L 254.5 126 Z " /><path fill="rgb(0,0,0)" stroke="rgb(0,0,0)" stroke-width="1" opacity="0.6352941176470588" d="M 383.5 126 L 384 128 L 386 128.5 L 384.5 129 L 383.5 126 Z " /><path fill="rgb(0,0,0)" stroke="rgb(0,0,0)" stroke-width="1" opacity="0.6352941176470588" d="M 336.5 128 L 337 130.5 L 336 130.5 L 336.5 128 Z " /><path fill="rgb(0,0,0)" stroke="rgb(0,0,0)" stroke-width="1" opacity="0.6352941176470588" d="M 389.5 129 L 392 129.5 L 389.5 130 L 389.5 129 Z " /><path fill="rgb(0,0,0)" stroke="rgb(0,0,0)" stroke-width="1" opacity="0.6352941176470588" d="M 394.5 130 L 397 130.5 L 394.5 131 L 394.5 130 Z " /><path fill="rgb(0,0,0)" stroke="rgb(0,0,0)" stroke-width="1" opacity="0.6352941176470588" d="M 255.5 131 L 256 133.5 L 255 133.5 L 255.5 131 Z " /><path fill="rgb(0,0,0)" stroke="rgb(0,0,0)" stroke-width="1" opacity="0.6352941176470588" d="M 404.5 132 L 407 132.5 L 404.5 133 L 404.5 132 Z " /><path fill="rgb(0,0,0)" stroke="rgb(0,0,0)" stroke-width="1" opacity="0.6352941176470588" d="M 337.5 133 L 338 135.5 L 337 135.5 L 337.5 133 Z " /><path fill="rgb(0,0,0)" stroke="rgb(0,0,0)" stroke-width="1" opacity="0.6352941176470588" d="M 409.5 133 L 412 133.5 L 409.5 134 L 409.5 133 Z " /><path fill="rgb(0,0,0)" stroke="rgb(0,0,0)" stroke-width="1" opacity="0.6352941176470588" d="M 414.5 134 L 417 134.5 L 414.5 135 L 414.5 134 Z " /><path fill="rgb(0,0,0)" stroke="rgb(0,0,0)" stroke-width="1" opacity="0.6352941176470588" d="M 419.5 135 L 422 135.5 L 419.5 136 L 419.5 135 Z " /><path fill="rgb(0,0,0)" stroke="rgb(0,0,0)" stroke-width="1" opacity="0.6352941176470588" d="M 256.5 136 L 257 138.5 L 256 138.5 L 256.5 136 Z " /><path fill="rgb(0,0,0)" stroke="rgb(0,0,0)" stroke-width="1" opacity="0.6352941176470588" d="M 338.5 138 L 339 140.5 L 338 140.5 L 338.5 138 Z " /><path fill="rgb(0,0,0)" stroke="rgb(0,0,0)" stroke-width="1" opacity="0.6352941176470588" d="M 95.5 141 L 94.5 143 L 95.5 141 Z " /><path fill="rgb(0,0,0)" stroke="rgb(0,0,0)" stroke-width="1" opacity="0.6352941176470588" d="M 257.5 141 L 258 143.5 L 257 143.5 L 257.5 141 Z " /><path fill="rgb(0,0,0)" stroke="rgb(0,0,0)" stroke-width="1" opacity="0.6352941176470588" d="M 339.5 143 L 340 145.5 L 339 145.5 L 339.5 143 Z " /><path fill="rgb(0,0,0)" stroke="rgb(0,0,0)" stroke-width="1" opacity="0.6352941176470588" d="M 258.5 146 L 259 148.5 L 258 148.5 L 258.5 146 Z " /><path fill="rgb(0,0,0)" stroke="rgb(0,0,0)" stroke-width="1" opacity="0.6352941176470588" d="M 86.5 147 L 85.5 149 L 86.5 147 Z " /><path fill="rgb(0,0,0)" stroke="rgb(0,0,0)" stroke-width="1" opacity="0.6352941176470588" d="M 340.5 148 L 341 150.5 L 340 150.5 L 340.5 148 Z " /><path fill="rgb(0,0,0)" stroke="rgb(0,0,0)" stroke-width="1" opacity="0.6352941176470588" d="M 83.5 149 L 82.5 151 L 83.5 149 Z " /><path fill="rgb(0,0,0)" stroke="rgb(0,0,0)" stroke-width="1" opacity="0.6352941176470588" d="M 259.5 151 L 260 153.5 L 259 153.5 L 259.5 151 Z " /><path fill="rgb(0,0,0)" stroke="rgb(0,0,0)" stroke-width="1" opacity="0.6352941176470588" d="M 79.5 152 L 78.5 154 L 79.5 152 Z " /><path fill="rgb(0,0,0)" stroke="rgb(0,0,0)" stroke-width="1" opacity="0.6352941176470588" d="M 185.5 152 L 191 152.5 L 185.5 153 L 185.5 152 Z " /><path fill="rgb(0,0,0)" stroke="rgb(0,0,0)" stroke-width="1" opacity="0.6352941176470588" d="M 209.5 152 L 215 152.5 L 209.5 153 L 209.5 152 Z " /><path fill="rgb(0,0,0)" stroke="rgb(0,0,0)" stroke-width="1" opacity="0.6352941176470588" d="M 177.5 153 L 180 153.5 L 177.5 154 L 177.5 153 Z " /><path fill="rgb(0,0,0)" stroke="rgb(0,0,0)" stroke-width="1" opacity="0.6352941176470588" d="M 220.5 153 L 223 153.5 L 220.5 154 L 220.5 153 Z " /><path fill="rgb(0,0,0)" stroke="rgb(0,0,0)" stroke-width="1" opacity="0.6352941176470588" d="M 341.5 153 L 342 155.5 L 341 155.5 L 341.5 153 Z " /><path fill="rgb(0,0,0)" stroke="rgb(0,0,0)" stroke-width="1" opacity="0.6352941176470588" d="M 171.5 154 L 174 154.5 L 171.5 155 L 171.5 154 Z " /><path fill="rgb(0,0,0)" stroke="rgb(0,0,0)" stroke-width="1" opacity="0.6352941176470588" d="M 74.5 156 L 73.5 158 L 74.5 156 Z " /><path fill="rgb(0,0,0)" stroke="rgb(0,0,0)" stroke-width="1" opacity="0.6352941176470588" d="M 260.5 156 L 261 158.5 L 260 158.5 L 260.5 156 Z " /><path fill="rgb(0,0,0)" stroke="rgb(0,0,0)" stroke-width="1" opacity="0.6352941176470588" d="M 342.5 158 L 343 160.5 L 342 160.5 L 342.5 158 Z " /><path fill="rgb(0,0,0)" stroke="rgb(0,0,0)" stroke-width="1" opacity="0.6352941176470588" d="M 69.5 160 L 66.5 164 L 69.5 160 Z " /><path fill="rgb(0,0,0)" stroke="rgb(0,0,0)" stroke-width="1" opacity="0.6352941176470588" d="M 261.5 161 L 262 164.5 L 261 164.5 L 261.5 161 Z " /><path fill="rgb(0,0,0)" stroke="rgb(0,0,0)" stroke-width="1" opacity="0.6352941176470588" d="M 343.5 163 L 344 165.5 L 343 165.5 L 343.5 163 Z " /><path fill="rgb(0,0,0)" stroke="rgb(0,0,0)" stroke-width="1" opacity="0.6352941176470588" d="M 346.5 168 L 349 168.5 L 346.5 169 L 346.5 168 Z " /><path fill="rgb(0,0,0)" stroke="rgb(0,0,0)" stroke-width="1" opacity="0.6352941176470588" d="M 351.5 169 L 354 169.5 L 351.5 170 L 351.5 169 Z " /><path fill="rgb(0,0,0)" stroke="rgb(0,0,0)" stroke-width="1" opacity="0.6352941176470588" d="M 356.5 170 L 359 170.5 L 356.5 171 L 356.5 170 Z " /><path fill="rgb(0,0,0)" stroke="rgb(0,0,0)" stroke-width="1" opacity="0.6352941176470588" d="M 361.5 171 L 364 171.5 L 361.5 172 L 361.5 171 Z " /><path fill="rgb(0,0,0)" stroke="rgb(0,0,0)" stroke-width="1" opacity="0.6352941176470588" d="M 366.5 172 L 369 172.5 L 366.5 173 L 366.5 172 Z " /><path fill="rgb(0,0,0)" stroke="rgb(0,0,0)" stroke-width="1" opacity="0.6352941176470588" d="M 371.5 173 L 374 173.5 L 371.5 174 L 371.5 173 Z " /><path fill="rgb(0,0,0)" stroke="rgb(0,0,0)" stroke-width="1" opacity="0.6352941176470588" d="M 376.5 174 L 379 174.5 L 376.5 175 L 376.5 174 Z " /><path fill="rgb(0,0,0)" stroke="rgb(0,0,0)" stroke-width="1" opacity="0.6352941176470588" d="M 381.5 175 L 384 175.5 L 381.5 176 L 381.5 175 Z " /><path fill="rgb(0,0,0)" stroke="rgb(0,0,0)" stroke-width="1" opacity="0.6352941176470588" d="M 386.5 176 L 389 176.5 L 386.5 177 L 386.5 176 Z " /><path fill="rgb(0,0,0)" stroke="rgb(0,0,0)" stroke-width="1" opacity="0.6352941176470588" d="M 305.5 177 L 306 178.5 L 187 298.5 L 214.5 325 L 334.5 206 L 334.5 207 L 213.5 326 L 186 297.5 L 305.5 177 Z " /><path fill="rgb(0,0,0)" stroke="rgb(0,0,0)" stroke-width="1" opacity="0.6352941176470588" d="M 51.5 178 L 48.5 182 L 51.5 178 Z " /><path fill="rgb(0,0,0)" stroke="rgb(0,0,0)" stroke-width="1" opacity="0.6352941176470588" d="M 107.5 181 L 106.5 183 L 107.5 181 Z " /><path fill="rgb(0,0,0)" stroke="rgb(0,0,0)" stroke-width="1" opacity="0.6352941176470588" d="M 104.5 183 L 102.5 186 L 104.5 183 Z " /><path fill="rgb(0,0,0)" stroke="rgb(0,0,0)" stroke-width="1" opacity="0.6352941176470588" d="M 45.5 185 L 44.5 187 L 45.5 185 Z " /><path fill="rgb(0,0,0)" stroke="rgb(0,0,0)" stroke-width="1" opacity="0.6352941176470588" d="M 99.5 187 L 98.5 189 L 99.5 187 Z " /><path fill="rgb(0,0,0)" stroke="rgb(0,0,0)" stroke-width="1" opacity="0.6352941176470588" d="M 41.5 190 L 40.5 192 L 41.5 190 Z " /><path fill="rgb(0,0,0)" stroke="rgb(0,0,0)" stroke-width="1" opacity="0.6352941176470588" d="M 93.5 192 L 80.5 206 L 93.5 192 Z " /><path fill="rgb(0,0,0)" stroke="rgb(0,0,0)" stroke-width="1" opacity="0.6352941176470588" d="M 188.5 192 L 194 192.5 L 188.5 193 L 188.5 192 Z " /><path fill="rgb(0,0,0)" stroke="rgb(0,0,0)" stroke-width="1" opacity="0.6352941176470588" d="M 205.5 192 L 211 192.5 L 205.5 193 L 205.5 192 Z " /><path fill="rgb(0,0,0)" stroke="rgb(0,0,0)" stroke-width="1" opacity="0.6352941176470588" d="M 180.5 193 L 184 193.5 L 180.5 194 L 180.5 193 Z " /><path fill="rgb(0,0,0)" stroke="rgb(0,0,0)" stroke-width="1" opacity="0.6352941176470588" d="M 216.5 193 L 219 193.5 L 216.5 194 L 216.5 193 Z " /><path fill="rgb(0,0,0)" stroke="rgb(0,0,0)" stroke-width="1" opacity="0.6352941176470588" d="M 38.5 194 L 37.5 196 L 38.5 194 Z " /><path fill="rgb(0,0,0)" stroke="rgb(0,0,0)" stroke-width="1" opacity="0.6352941176470588" d="M 222.5 194 L 225 194.5 L 222.5 195 L 222.5 194 Z " /><path fill="rgb(0,0,0)" stroke="rgb(0,0,0)" stroke-width="1" opacity="0.6352941176470588" d="M 230.5 196 L 195.5 232 L 230.5 196 Z " /><path fill="rgb(0,0,0)" stroke="rgb(0,0,0)" stroke-width="1" opacity="0.6352941176470588" d="M 30.5 206 L 29.5 208 L 30.5 206 Z " /><path fill="rgb(0,0,0)" stroke="rgb(0,0,0)" stroke-width="1" opacity="0.6352941176470588" d="M 137.5 209 L 136.5 211 L 137.5 209 Z " /><path fill="rgb(0,0,0)" stroke="rgb(0,0,0)" stroke-width="1" opacity="0.6352941176470588" d="M 76.5 210 L 75.5 212 L 76.5 210 Z " /><path fill="rgb(0,0,0)" stroke="rgb(0,0,0)" stroke-width="1" opacity="0.6352941176470588" d="M 134.5 211 L 133.5 213 L 134.5 211 Z " /><path fill="rgb(0,0,0)" stroke="rgb(0,0,0)" stroke-width="1" opacity="0.6352941176470588" d="M 131.5 213 L 130.5 215 L 131.5 213 Z " /><path fill="rgb(0,0,0)" stroke="rgb(0,0,0)" stroke-width="1" opacity="0.6352941176470588" d="M 72.5 215 L 71.5 217 L 72.5 215 Z " /><path fill="rgb(0,0,0)" stroke="rgb(0,0,0)" stroke-width="1" opacity="0.6352941176470588" d="M 127.5 216 L 126.5 218 L 127.5 216 Z " /><path fill="rgb(0,0,0)" stroke="rgb(0,0,0)" stroke-width="1" opacity="0.6352941176470588" d="M 123.5 219 L 120.5 223 L 123.5 219 Z " /><path fill="rgb(0,0,0)" stroke="rgb(0,0,0)" stroke-width="1" opacity="0.6352941176470588" d="M 110.5 232 L 107.5 236 L 110.5 232 Z " /><path fill="rgb(0,0,0)" stroke="rgb(0,0,0)" stroke-width="1" opacity="0.6352941176470588" d="M 189.5 232 L 194 232.5 L 189.5 233 L 189.5 232 Z " /><path fill="rgb(0,0,0)" stroke="rgb(0,0,0)" stroke-width="1" opacity="0.6352941176470588" d="M 183.5 233 L 186 233.5 L 183.5 234 L 183.5 233 Z " /><path fill="rgb(0,0,0)" stroke="rgb(0,0,0)" stroke-width="1" opacity="0.6352941176470588" d="M 105.5 238 L 104.5 240 L 105.5 238 Z " /><path fill="rgb(0,0,0)" stroke="rgb(0,0,0)" stroke-width="1" opacity="0.6352941176470588" d="M 102.5 242 L 101.5 244 L 102.5 242 Z " /><path fill="rgb(0,0,0)" stroke="rgb(0,0,0)" stroke-width="1" opacity="0.6352941176470588" d="M 158.5 243 L 157.5 245 L 158.5 243 Z " /><path fill="rgb(0,0,0)" stroke="rgb(0,0,0)" stroke-width="1" opacity="0.6352941176470588" d="M 152.5 247 L 151.5 249 L 152.5 247 Z " /><path fill="rgb(0,0,0)" stroke="rgb(0,0,0)" stroke-width="1" opacity="0.6352941176470588" d="M 98.5 248 L 97.5 250 L 98.5 248 Z " /><path fill="rgb(0,0,0)" stroke="rgb(0,0,0)" stroke-width="1" opacity="0.6352941176470588" d="M 147.5 251 L 139.5 260 L 147.5 251 Z " /><path fill="rgb(0,0,0)" stroke="rgb(0,0,0)" stroke-width="1" opacity="0.6352941176470588" d="M 358.5 252 L 361 252.5 L 358.5 253 L 358.5 252 Z " /><path fill="rgb(0,0,0)" stroke="rgb(0,0,0)" stroke-width="1" opacity="0.6352941176470588" d="M 368.5 254 L 371 254.5 L 368.5 255 L 368.5 254 Z " /><path fill="rgb(0,0,0)" stroke="rgb(0,0,0)" stroke-width="1" opacity="0.6352941176470588" d="M 383.5 257 L 386 257.5 L 383.5 258 L 383.5 257 Z " /><path fill="rgb(0,0,0)" stroke="rgb(0,0,0)" stroke-width="1" opacity="0.6352941176470588" d="M 136.5 263 L 135.5 265 L 136.5 263 Z " /><path fill="rgb(0,0,0)" stroke="rgb(0,0,0)" stroke-width="1" opacity="0.6352941176470588" d="M 3.5 274 L 4 276.5 L 3 276.5 L 3.5 274 Z " /><path fill="rgb(0,0,0)" stroke="rgb(0,0,0)" stroke-width="1" opacity="0.6352941176470588" d="M 396.5 274 L 397 276.5 L 396 276.5 L 396.5 274 Z " /><path fill="rgb(0,0,0)" stroke="rgb(0,0,0)" stroke-width="1" opacity="0.6352941176470588" d="M 43.5 277 L 44 279.5 L 43 279.5 L 43.5 277 Z " /><path fill="rgb(0,0,0)" stroke="rgb(0,0,0)" stroke-width="1" opacity="0.6352941176470588" d="M 397.5 280 L 398 282.5 L 397 282.5 L 397.5 280 Z " /><path fill="rgb(0,0,0)" stroke="rgb(0,0,0)" stroke-width="1" opacity="0.6352941176470588" d="M 315.5 281 L 280.5 317 L 315.5 281 Z " /><path fill="rgb(0,0,0)" stroke="rgb(0,0,0)" stroke-width="1" opacity="0.6352941176470588" d="M 42.5 282 L 43 284.5 L 42 284.5 L 42.5 282 Z " /><path fill="rgb(0,0,0)" stroke="rgb(0,0,0)" stroke-width="1" opacity="0.6352941176470588" d="M 357.5 283 L 358 285.5 L 357 285.5 L 357.5 283 Z " /><path fill="rgb(0,0,0)" stroke="rgb(0,0,0)" stroke-width="1" opacity="0.6352941176470588" d="M 1.5 286 L 2 289.5 L 1 289.5 L 1.5 286 Z " /><path fill="rgb(0,0,0)" stroke="rgb(0,0,0)" stroke-width="1" opacity="0.6352941176470588" d="M 317.5 287 L 318 289.5 L 317 289.5 L 317.5 287 Z " /><path fill="rgb(0,0,0)" stroke="rgb(0,0,0)" stroke-width="1" opacity="0.6352941176470588" d="M 398.5 287 L 399 290.5 L 398 290.5 L 398.5 287 Z " /><path fill="rgb(0,0,0)" stroke="rgb(0,0,0)" stroke-width="1" opacity="0.6352941176470588" d="M 41.5 288 L 42 291.5 L 41 291.5 L 41.5 288 Z " /><path fill="rgb(0,0,0)" stroke="rgb(0,0,0)" stroke-width="1" opacity="0.6352941176470588" d="M 358.5 289 L 359 292.5 L 358 292.5 L 358.5 289 Z " /><path fill="rgb(0,0,0)" stroke="rgb(0,0,0)" stroke-width="1" opacity="0.6352941176470588" d="M 81.5 292 L 82 294.5 L 81 294.5 L 81.5 292 Z " /><path fill="rgb(0,0,0)" stroke="rgb(0,0,0)" stroke-width="1" opacity="0.6352941176470588" d="M 318.5 293 L 319 295.5 L 318 295.5 L 318.5 293 Z " /><path fill="rgb(0,0,0)" stroke="rgb(0,0,0)" stroke-width="1" opacity="0.6352941176470588" d="M 0.5 296 L 1 303.5 L 0 303.5 L 0.5 296 Z " /><path fill="rgb(0,0,0)" stroke="rgb(0,0,0)" stroke-width="1" opacity="0.6352941176470588" d="M 40.5 296 L 41 301.5 L 40 301.5 L 40.5 296 Z " /><path fill="rgb(0,0,0)" stroke="rgb(0,0,0)" stroke-width="1" opacity="0.6352941176470588" d="M 359.5 297 L 360 302.5 L 359 302.5 L 359.5 297 Z " /><path fill="rgb(0,0,0)" stroke="rgb(0,0,0)" stroke-width="1" opacity="0.6352941176470588" d="M 399.5 297 L 400 304.5 L 399 304.5 L 399.5 297 Z " /><path fill="rgb(0,0,0)" stroke="rgb(0,0,0)" stroke-width="1" opacity="0.6352941176470588" d="M 80.5 299 L 81 304.5 L 80 304.5 L 80.5 299 Z " /><path fill="rgb(0,0,0)" stroke="rgb(0,0,0)" stroke-width="1" opacity="0.6352941176470588" d="M 120.5 301 L 121 304.5 L 120 304.5 L 120.5 301 Z " /><path fill="rgb(0,0,0)" stroke="rgb(0,0,0)" stroke-width="1" opacity="0.6352941176470588" d="M 319.5 301 L 320 307.5 L 319 307.5 L 319.5 301 Z " /><path fill="rgb(0,0,0)" stroke="rgb(0,0,0)" stroke-width="1" opacity="0.6352941176470588" d="M 399.5 317 L 400 326.5 L 399 326.5 L 399.5 317 Z " /><path fill="rgb(0,0,0)" stroke="rgb(0,0,0)" stroke-width="1" opacity="0.6352941176470588" d="M 279.5 318 L 280 322.5 L 279 322.5 L 279.5 318 Z " /><path fill="rgb(0,0,0)" stroke="rgb(0,0,0)" stroke-width="1" opacity="0.6352941176470588" d="M 319.5 318 L 320 323.5 L 319 323.5 L 319.5 318 Z " /><path fill="rgb(0,0,0)" stroke="rgb(0,0,0)" stroke-width="1" opacity="0.6352941176470588" d="M 80.5 319 L 81 324.5 L 80 324.5 L 80.5 319 Z " /><path fill="rgb(0,0,0)" stroke="rgb(0,0,0)" stroke-width="1" opacity="0.6352941176470588" d="M 120.5 319 L 121 322.5 L 120 322.5 L 120.5 319 Z " /><path fill="rgb(0,0,0)" stroke="rgb(0,0,0)" stroke-width="1" opacity="0.6352941176470588" d="M 0.5 321 L 1 327.5 L 0 327.5 L 0.5 321 Z " /><path fill="rgb(0,0,0)" stroke="rgb(0,0,0)" stroke-width="1" opacity="0.6352941176470588" d="M 359.5 321 L 360 326.5 L 359 326.5 L 359.5 321 Z " /><path fill="rgb(0,0,0)" stroke="rgb(0,0,0)" stroke-width="1" opacity="0.6352941176470588" d="M 40.5 322 L 41 327.5 L 40 327.5 L 40.5 322 Z " /><path fill="rgb(0,0,0)" stroke="rgb(0,0,0)" stroke-width="1" opacity="0.6352941176470588" d="M 318.5 328 L 319 331.5 L 318 331.5 L 318.5 328 Z " /><path fill="rgb(0,0,0)" stroke="rgb(0,0,0)" stroke-width="1" opacity="0.6352941176470588" d="M 81.5 329 L 82 331.5 L 81 331.5 L 81.5 329 Z " /><path fill="rgb(0,0,0)" stroke="rgb(0,0,0)" stroke-width="1" opacity="0.6352941176470588" d="M 41.5 332 L 42 335.5 L 41 335.5 L 41.5 332 Z " /><path fill="rgb(0,0,0)" stroke="rgb(0,0,0)" stroke-width="1" opacity="0.6352941176470588" d="M 358.5 332 L 359 334.5 L 358 334.5 L 358.5 332 Z " /><path fill="rgb(0,0,0)" stroke="rgb(0,0,0)" stroke-width="1" opacity="0.6352941176470588" d="M 398.5 333 L 399 336.5 L 398 336.5 L 398.5 333 Z " /><path fill="rgb(0,0,0)" stroke="rgb(0,0,0)" stroke-width="1" opacity="0.6352941176470588" d="M 1.5 334 L 2 337.5 L 1 337.5 L 1.5 334 Z " /><path fill="rgb(0,0,0)" stroke="rgb(0,0,0)" stroke-width="1" opacity="0.6352941176470588" d="M 317.5 334 L 318 336.5 L 317 336.5 L 317.5 334 Z " /><path fill="rgb(0,0,0)" stroke="rgb(0,0,0)" stroke-width="1" opacity="0.6352941176470588" d="M 357.5 338 L 358 340.5 L 357 340.5 L 357.5 338 Z " /><path fill="rgb(0,0,0)" stroke="rgb(0,0,0)" stroke-width="1" opacity="0.6352941176470588" d="M 42.5 339 L 43 341.5 L 42 341.5 L 42.5 339 Z " /><path fill="rgb(0,0,0)" stroke="rgb(0,0,0)" stroke-width="1" opacity="0.6352941176470588" d="M 397.5 341 L 398 343.5 L 397 343.5 L 397.5 341 Z " /><path fill="rgb(0,0,0)" stroke="rgb(0,0,0)" stroke-width="1" opacity="0.6352941176470588" d="M 2.5 342 L 3 344.5 L 2 344.5 L 2.5 342 Z " /><path fill="rgb(0,0,0)" stroke="rgb(0,0,0)" stroke-width="1" opacity="0.6352941176470588" d="M 396.5 347 L 397 349.5 L 396 349.5 L 396.5 347 Z " /><path fill="rgb(0,0,0)" stroke="rgb(0,0,0)" stroke-width="1" opacity="0.6352941176470588" d="M 268.5 353 L 267.5 355 L 268.5 353 Z " /><path fill="rgb(0,0,0)" stroke="rgb(0,0,0)" stroke-width="1" opacity="0.6352941176470588" d="M 135.5 359 L 136.5 361 L 135.5 359 Z " /><path fill="rgb(0,0,0)" stroke="rgb(0,0,0)" stroke-width="1" opacity="0.6352941176470588" d="M 264.5 359 L 263.5 361 L 264.5 359 Z " /><path fill="rgb(0,0,0)" stroke="rgb(0,0,0)" stroke-width="1" opacity="0.6352941176470588" d="M 138.5 363 L 148.5 374 L 138.5 363 Z " /><path fill="rgb(0,0,0)" stroke="rgb(0,0,0)" stroke-width="1" opacity="0.6352941176470588" d="M 260.5 364 L 252.5 373 L 260.5 364 Z " /><path fill="rgb(0,0,0)" stroke="rgb(0,0,0)" stroke-width="1" opacity="0.6352941176470588" d="M 94.5 369 L 95.5 371 L 94.5 369 Z " /><path fill="rgb(0,0,0)" stroke="rgb(0,0,0)" stroke-width="1" opacity="0.6352941176470588" d="M 97.5 374 L 98.5 376 L 97.5 374 Z " /><path fill="rgb(0,0,0)" stroke="rgb(0,0,0)" stroke-width="1" opacity="0.6352941176470588" d="M 302.5 374 L 301.5 376 L 302.5 374 Z " /><path fill="rgb(0,0,0)" stroke="rgb(0,0,0)" stroke-width="1" opacity="0.6352941176470588" d="M 151.5 375 L 152.5 377 L 151.5 375 Z " /><path fill="rgb(0,0,0)" stroke="rgb(0,0,0)" stroke-width="1" opacity="0.6352941176470588" d="M 248.5 375 L 247.5 377 L 248.5 375 Z " /><path fill="rgb(0,0,0)" stroke="rgb(0,0,0)" stroke-width="1" opacity="0.6352941176470588" d="M 300.5 377 L 299.5 379 L 300.5 377 Z " /><path fill="rgb(0,0,0)" stroke="rgb(0,0,0)" stroke-width="1" opacity="0.6352941176470588" d="M 101.5 380 L 102.5 382 L 101.5 380 Z " /><path fill="rgb(0,0,0)" stroke="rgb(0,0,0)" stroke-width="1" opacity="0.6352941176470588" d="M 298.5 380 L 297.5 382 L 298.5 380 Z " /><path fill="rgb(0,0,0)" stroke="rgb(0,0,0)" stroke-width="1" opacity="0.6352941176470588" d="M 103.5 383 L 105.5 386 L 103.5 383 Z " /><path fill="rgb(0,0,0)" stroke="rgb(0,0,0)" stroke-width="1" opacity="0.6352941176470588" d="M 295.5 384 L 294.5 386 L 295.5 384 Z " /><path fill="rgb(0,0,0)" stroke="rgb(0,0,0)" stroke-width="1" opacity="0.6352941176470588" d="M 107.5 388 L 110.5 392 L 107.5 388 Z " /><path fill="rgb(0,0,0)" stroke="rgb(0,0,0)" stroke-width="1" opacity="0.6352941176470588" d="M 292.5 388 L 289.5 392 L 292.5 388 Z " /><path fill="rgb(0,0,0)" stroke="rgb(0,0,0)" stroke-width="1" opacity="0.6352941176470588" d="M 214.5 390 L 217 390.5 L 214.5 391 L 214.5 390 Z " /><path fill="rgb(0,0,0)" stroke="rgb(0,0,0)" stroke-width="1" opacity="0.6352941176470588" d="M 189.5 391 L 193 391.5 L 189.5 392 L 189.5 391 Z " /><path fill="rgb(0,0,0)" stroke="rgb(0,0,0)" stroke-width="1" opacity="0.6352941176470588" d="M 207.5 391 L 211 391.5 L 207.5 392 L 207.5 391 Z " /><path fill="rgb(0,0,0)" stroke="rgb(0,0,0)" stroke-width="1" opacity="0.6352941176470588" d="M 61.5 392 L 62.5 394 L 61.5 392 Z " /><path fill="rgb(0,0,0)" stroke="rgb(0,0,0)" stroke-width="1" opacity="0.6352941176470588" d="M 66.5 400 L 67.5 402 L 66.5 400 Z " /><path fill="rgb(0,0,0)" stroke="rgb(0,0,0)" stroke-width="1" opacity="0.6352941176470588" d="M 120.5 401 L 123.5 405 L 120.5 401 Z " /><path fill="rgb(0,0,0)" stroke="rgb(0,0,0)" stroke-width="1" opacity="0.6352941176470588" d="M 279.5 401 L 276.5 405 L 279.5 401 Z " /><path fill="rgb(0,0,0)" stroke="rgb(0,0,0)" stroke-width="1" opacity="0.6352941176470588" d="M 330.5 404 L 329.5 406 L 330.5 404 Z " /><path fill="rgb(0,0,0)" stroke="rgb(0,0,0)" stroke-width="1" opacity="0.6352941176470588" d="M 126.5 406 L 128.5 409 L 126.5 406 Z " /><path fill="rgb(0,0,0)" stroke="rgb(0,0,0)" stroke-width="1" opacity="0.6352941176470588" d="M 273.5 406 L 272.5 408 L 273.5 406 Z " /><path fill="rgb(0,0,0)" stroke="rgb(0,0,0)" stroke-width="1" opacity="0.6352941176470588" d="M 71.5 407 L 72.5 409 L 71.5 407 Z " /><path fill="rgb(0,0,0)" stroke="rgb(0,0,0)" stroke-width="1" opacity="0.6352941176470588" d="M 328.5 407 L 326.5 410 L 328.5 407 Z " /><path fill="rgb(0,0,0)" stroke="rgb(0,0,0)" stroke-width="1" opacity="0.6352941176470588" d="M 130.5 409 L 131.5 411 L 130.5 409 Z " /><path fill="rgb(0,0,0)" stroke="rgb(0,0,0)" stroke-width="1" opacity="0.6352941176470588" d="M 269.5 409 L 268.5 411 L 269.5 409 Z " /><path fill="rgb(0,0,0)" stroke="rgb(0,0,0)" stroke-width="1" opacity="0.6352941176470588" d="M 74.5 411 L 76.5 414 L 74.5 411 Z " /><path fill="rgb(0,0,0)" stroke="rgb(0,0,0)" stroke-width="1" opacity="0.6352941176470588" d="M 324.5 412 L 322.5 415 L 324.5 412 Z " /><path fill="rgb(0,0,0)" stroke="rgb(0,0,0)" stroke-width="1" opacity="0.6352941176470588" d="M 136.5 413 L 137.5 415 L 136.5 413 Z " /><path fill="rgb(0,0,0)" stroke="rgb(0,0,0)" stroke-width="1" opacity="0.6352941176470588" d="M 263.5 413 L 262.5 415 L 263.5 413 Z " /><path fill="rgb(0,0,0)" stroke="rgb(0,0,0)" stroke-width="1" opacity="0.6352941176470588" d="M 141.5 416 L 142.5 418 L 141.5 416 Z " /><path fill="rgb(0,0,0)" stroke="rgb(0,0,0)" stroke-width="1" opacity="0.6352941176470588" d="M 370.5 416 L 369.5 418 L 370.5 416 Z " /><path fill="rgb(0,0,0)" stroke="rgb(0,0,0)" stroke-width="1" opacity="0.6352941176470588" d="M 80.5 418 L 93.5 432 L 80.5 418 Z " /><path fill="rgb(0,0,0)" stroke="rgb(0,0,0)" stroke-width="1" opacity="0.6352941176470588" d="M 319.5 418 L 306.5 432 L 319.5 418 Z " /><path fill="rgb(0,0,0)" stroke="rgb(0,0,0)" stroke-width="1" opacity="0.6352941176470588" d="M 364.5 425 L 363.5 427 L 364.5 425 Z " /><path fill="rgb(0,0,0)" stroke="rgb(0,0,0)" stroke-width="1" opacity="0.6352941176470588" d="M 37.5 428 L 38.5 430 L 37.5 428 Z " /><path fill="rgb(0,0,0)" stroke="rgb(0,0,0)" stroke-width="1" opacity="0.6352941176470588" d="M 362.5 428 L 361.5 430 L 362.5 428 Z " /><path fill="rgb(0,0,0)" stroke="rgb(0,0,0)" stroke-width="1" opacity="0.6352941176470588" d="M 180.5 430 L 183 430.5 L 180.5 431 L 180.5 430 Z " /><path fill="rgb(0,0,0)" stroke="rgb(0,0,0)" stroke-width="1" opacity="0.6352941176470588" d="M 217.5 430 L 220 430.5 L 217.5 431 L 217.5 430 Z " /><path fill="rgb(0,0,0)" stroke="rgb(0,0,0)" stroke-width="1" opacity="0.6352941176470588" d="M 187.5 431 L 193 431.5 L 187.5 432 L 187.5 431 Z " /><path fill="rgb(0,0,0)" stroke="rgb(0,0,0)" stroke-width="1" opacity="0.6352941176470588" d="M 207.5 431 L 213 431.5 L 207.5 432 L 207.5 431 Z " /><path fill="rgb(0,0,0)" stroke="rgb(0,0,0)" stroke-width="1" opacity="0.6352941176470588" d="M 40.5 432 L 41.5 434 L 40.5 432 Z " /><path fill="rgb(0,0,0)" stroke="rgb(0,0,0)" stroke-width="1" opacity="0.6352941176470588" d="M 359.5 432 L 358.5 434 L 359.5 432 Z " /><path fill="rgb(0,0,0)" stroke="rgb(0,0,0)" stroke-width="1" opacity="0.6352941176470588" d="M 98.5 435 L 99.5 437 L 98.5 435 Z " /><path fill="rgb(0,0,0)" stroke="rgb(0,0,0)" stroke-width="1" opacity="0.6352941176470588" d="M 301.5 435 L 300.5 437 L 301.5 435 Z " /><path fill="rgb(0,0,0)" stroke="rgb(0,0,0)" stroke-width="1" opacity="0.6352941176470588" d="M 43.5 436 L 45.5 439 L 43.5 436 Z " /><path fill="rgb(0,0,0)" stroke="rgb(0,0,0)" stroke-width="1" opacity="0.6352941176470588" d="M 355.5 437 L 354.5 439 L 355.5 437 Z " /><path fill="rgb(0,0,0)" stroke="rgb(0,0,0)" stroke-width="1" opacity="0.6352941176470588" d="M 103.5 439 L 104.5 441 L 103.5 439 Z " /><path fill="rgb(0,0,0)" stroke="rgb(0,0,0)" stroke-width="1" opacity="0.6352941176470588" d="M 296.5 439 L 295.5 441 L 296.5 439 Z " /><path fill="rgb(0,0,0)" stroke="rgb(0,0,0)" stroke-width="1" opacity="0.6352941176470588" d="M 293.5 441 L 292.5 443 L 293.5 441 Z " /><path fill="rgb(0,0,0)" stroke="rgb(0,0,0)" stroke-width="1" opacity="0.6352941176470588" d="M 48.5 442 L 51.5 446 L 48.5 442 Z " /><path fill="rgb(0,0,0)" stroke="rgb(0,0,0)" stroke-width="1" opacity="0.6352941176470588" d="M 350.5 443 L 347.5 447 L 350.5 443 Z " /><path fill="rgb(0,0,0)" stroke="rgb(0,0,0)" stroke-width="1" opacity="0.6352941176470588" d="M 110.5 444 L 111.5 446 L 110.5 444 Z " /><path fill="rgb(0,0,0)" stroke="rgb(0,0,0)" stroke-width="1" opacity="0.6352941176470588" d="M 334.5 459 L 330.5 464 L 334.5 459 Z " /><path fill="rgb(0,0,0)" stroke="rgb(0,0,0)" stroke-width="1" opacity="0.6352941176470588" d="M 66.5 460 L 69.5 464 L 66.5 460 Z " /><path fill="rgb(0,0,0)" stroke="rgb(0,0,0)" stroke-width="1" opacity="0.6352941176470588" d="M 73.5 466 L 75.5 469 L 73.5 466 Z " /><path fill="rgb(0,0,0)" stroke="rgb(0,0,0)" stroke-width="1" opacity="0.6352941176470588" d="M 326.5 466 L 325.5 468 L 326.5 466 Z " /><path fill="rgb(0,0,0)" stroke="rgb(0,0,0)" stroke-width="1" opacity="0.6352941176470588" d="M 227.5 469 L 230 469.5 L 227.5 470 L 227.5 469 Z " /><path fill="rgb(0,0,0)" stroke="rgb(0,0,0)" stroke-width="1" opacity="0.6352941176470588" d="M 78.5 470 L 79.5 472 L 78.5 470 Z " /><path fill="rgb(0,0,0)" stroke="rgb(0,0,0)" stroke-width="1" opacity="0.6352941176470588" d="M 176.5 470 L 180 470.5 L 176.5 471 L 176.5 470 Z " /><path fill="rgb(0,0,0)" stroke="rgb(0,0,0)" stroke-width="1" opacity="0.6352941176470588" d="M 220.5 470 L 224 470.5 L 220.5 471 L 220.5 470 Z " /><path fill="rgb(0,0,0)" stroke="rgb(0,0,0)" stroke-width="1" opacity="0.6352941176470588" d="M 321.5 470 L 320.5 472 L 321.5 470 Z " /><path fill="rgb(0,0,0)" stroke="rgb(0,0,0)" stroke-width="1" opacity="0.6352941176470588" d="M 184.5 471 L 190 471.5 L 184.5 472 L 184.5 471 Z " /><path fill="rgb(0,0,0)" stroke="rgb(0,0,0)" stroke-width="1" opacity="0.6352941176470588" d="M 210.5 471 L 216 471.5 L 210.5 472 L 210.5 471 Z " /><path fill="rgb(0,0,0)" stroke="rgb(0,0,0)" stroke-width="1" opacity="0.6352941176470588" d="M 82.5 473 L 83.5 475 L 82.5 473 Z " /><path fill="rgb(0,0,0)" stroke="rgb(0,0,0)" stroke-width="1" opacity="0.6352941176470588" d="M 317.5 473 L 316.5 475 L 317.5 473 Z " /><path fill="rgb(0,0,0)" stroke="rgb(0,0,0)" stroke-width="1" opacity="0.6352941176470588" d="M 314.5 475 L 313.5 477 L 314.5 475 Z " /><path fill="rgb(0,0,0)" stroke="rgb(0,0,0)" stroke-width="1" opacity="0.6352941176470588" d="M 305.5 481 L 304.5 483 L 305.5 481 Z " /><path fill="rgb(0,0,0)" stroke="rgb(0,0,0)" stroke-width="1" opacity="0.6352941176470588" d="M 99.5 484 L 100.5 486 L 99.5 484 Z " /><path fill="rgb(0,0,0)" stroke="rgb(0,0,0)" stroke-width="1" opacity="0.6352941176470588" d="M 300.5 484 L 299.5 486 L 300.5 484 Z " /><path fill="rgb(0,0,0)" stroke="rgb(0,0,0)" stroke-width="1" opacity="0.6352941176470588" d="M 162.5 508 L 165 508.5 L 162.5 509 L 162.5 508 Z " /><path fill="rgb(0,0,0)" stroke="rgb(0,0,0)" stroke-width="1" opacity="0.6352941176470588" d="M 167.5 509 L 170 509.5 L 167.5 510 L 167.5 509 Z " /><path fill="rgb(0,0,0)" stroke="rgb(0,0,0)" stroke-width="1" opacity="0.6352941176470588" d="M 175.5 510 L 178 510.5 L 175.5 511 L 175.5 510 Z " /><path fill="rgb(0,0,0)" stroke="rgb(0,0,0)" stroke-width="1" opacity="0.6352941176470588" d="M 222.5 510 L 225 510.5 L 222.5 511 L 222.5 510 Z " /><path fill="rgb(0,0,0)" stroke="rgb(0,0,0)" stroke-width="1" opacity="0.6352941176470588" d="M 184.5 511 L 191 511.5 L 184.5 512 L 184.5 511 Z " /><path fill="rgb(0,0,0)" stroke="rgb(0,0,0)" stroke-width="1" opacity="0.6352941176470588" d="M 209.5 511 L 216 511.5 L 209.5 512 L 209.5 511 Z " /></svg>